<?xml version="1.0" encoding="utf-8"?>
<!-- Generator: Adobe Illustrator 19.0.0, SVG Export Plug-In . SVG Version: 6.00 Build 0)  -->
<svg version="1.1" id="Layer_1" xmlns="http://www.w3.org/2000/svg" xmlns:xlink="http://www.w3.org/1999/xlink" x="0px" y="0px"
	 width="10.7px" height="10.6px" viewBox="-6 7.4 10.7 10.6" style="enable-background:new -6 7.4 10.7 10.6;" xml:space="preserve"
	>
<style type="text/css">
	.st0{fill:#838383;}
</style>
<path id="XMLID_20_" class="st0" d="M-0.8,18H-6v-5.1h5.2V18z M-5.6,13.3v4.3h4.3v-4.3H-5.6z M-3.4,13.6c0.8,0,1.2,0.3,1.2,0.9
	c0,0.4-0.2,0.7-0.6,0.8c0.5,0.1,0.7,0.4,0.7,0.9c0,0.4-0.1,0.6-0.3,0.8c-0.3,0.2-0.6,0.3-1,0.3h-1.3v-3.7H-3.4z M-3.6,15.1
	c0.4,0,0.6-0.1,0.6-0.4s-0.2-0.4-0.6-0.4h-0.3v0.8C-3.9,15.1-3.6,15.1-3.6,15.1z M-3.5,16.6c0.3,0,0.5-0.2,0.5-0.4
	c0-0.3-0.2-0.4-0.5-0.4h-0.4v0.9h0.4V16.6z M1.9,12.5h-5.1V7.4H2L1.9,12.5L1.9,12.5z M-2.8,7.8v4.3h4.3V7.8H-2.8z M1.1,11.8H0.2
	L0,11h-1.3l-0.2,0.8h-0.9l1.2-3.7h1.1L1.1,11.8z M-0.3,10.3l-0.4-1.4l-0.4,1.4H-0.3z M4.7,18h-5.2v-5.1h5.2V18z M0,13.3v4.3h4.3
	v-4.3H0z M3.4,14.5c-0.2-0.2-0.5-0.2-0.7-0.2c-0.4,0-0.6,0.1-0.8,0.3s-0.3,0.5-0.3,0.8c0,0.4,0.1,0.6,0.3,0.9
	c0.2,0.2,0.5,0.3,0.8,0.3s0.5-0.1,0.8-0.2l0.1,0.8c-0.4,0.1-0.7,0.2-1,0.2c-0.6,0-1.1-0.2-1.4-0.6c-0.3-0.3-0.5-0.8-0.5-1.4
	s0.2-1,0.5-1.4c0.3-0.3,0.8-0.5,1.3-0.5c0.4,0,0.7,0.1,1,0.2L3.4,14.5z"/>
</svg>
