<?xml version="1.0" encoding="utf-8"?>
<!-- Generator: Adobe Illustrator 19.0.0, SVG Export Plug-In . SVG Version: 6.00 Build 0)  -->
<svg version="1.1" id="Layer_1" xmlns="http://www.w3.org/2000/svg" xmlns:xlink="http://www.w3.org/1999/xlink" x="0px" y="0px"
	 width="9.1px" height="12.1px" viewBox="-6 6.9 9.1 12.1" style="enable-background:new -6 6.9 9.1 12.1;" xml:space="preserve">
<style type="text/css">
	.st0{fill:#838383;}
</style>
<path id="XMLID_8_" class="st0" d="M-1.4,19c-0.7,0-1.3-0.1-1.7-0.3c-0.5-0.2-0.9-0.5-1.3-0.9C-4.7,17.4-5,17-5.2,16.6
	c-0.3-0.5-0.4-0.9-0.5-1.4c-0.2-0.5-0.2-1-0.3-1.4c0-0.5,0-0.9,0-1.2c0-0.8,0.1-1.4,0.3-2C-5.5,10-5.3,9.5-5,9.1
	C-4.6,8.7-4.3,8.3-4,8s0.8-0.6,1.3-0.8c0.5-0.2,1-0.3,1.5-0.3C-0.7,7-0.1,7.2,0.4,7.5c0.5,0.3,0.9,0.7,1.2,1.1C2,9,2.2,9.4,2.4,9.9
	s0.4,1,0.6,1.6c0.1,0.6,0.1,1.3,0.1,2c-0.2,0.9-0.4,1.7-0.7,2.4c-0.3,0.7-0.7,1.3-1.1,1.7c-0.4,0.5-0.9,0.8-1.3,1
	C-0.4,18.8-1,19-1.4,19z M-3.8,18c0,0,0.1,0.1,0.2,0.1h0.1h0.1c0,0,0.1,0,0.2,0c0.1,0,0.2,0,0.3,0s0.2,0,0.3,0s0.2,0,0.3,0
	s0.3,0,0.5-0.1c0.2,0,0.4-0.1,0.6-0.2c0.2-0.1,0.4-0.3,0.6-0.5c0.2-0.2,0.3-0.5,0.4-0.9C0,16.2,0,15.9-0.1,15.6c0-0.3-0.1-0.6-0.2-1
	c-0.1-0.3-0.2-0.7-0.3-1c-0.1-0.3-0.2-0.7-0.4-1c0-0.2-0.1-0.5-0.2-0.7c-0.1-0.3-0.2-0.4-0.3-0.6c0-0.2-0.1-0.5-0.2-0.8
	c0-0.3-0.1-0.6-0.1-1V9.4c0,0,0,0-0.1,0.1c0,0.1,0,0.2-0.1,0.3c0,0.1,0,0.3-0.1,0.5c0,0.2,0,0.5,0,0.8c0,0.3,0.1,0.7,0.2,1.1
	c0,0.2,0.1,0.4,0.2,0.7s0.2,0.6,0.3,1c0.1,0.4,0.2,0.8,0.2,1.2s0,0.9-0.1,1.3c0,0.1-0.1,0.3-0.2,0.5s-0.3,0.4-0.4,0.5
	c-0.2,0.1-0.4,0.3-0.6,0.4c-0.3,0-0.6,0.1-0.9,0.1h-0.2C-3.7,17.9-3.7,17.9-3.8,18L-3.8,18z M-2,7.8C-2,8-2,8.1-1.9,8.2
	c0.1,0.1,0.2,0.2,0.4,0.2s0.3-0.1,0.4-0.2C-1,8.1-0.9,8-0.9,7.8c0-0.2-0.1-0.3-0.2-0.4s-0.2-0.1-0.4-0.1s-0.3,0-0.4,0.1
	S-2,7.7-2,7.8z"/>
</svg>
