<?xml version="1.0" encoding="utf-8"?>
<!-- Generator: Adobe Illustrator 19.0.0, SVG Export Plug-In . SVG Version: 6.00 Build 0)  -->
<svg version="1.1" id="Layer_1" xmlns="http://www.w3.org/2000/svg" xmlns:xlink="http://www.w3.org/1999/xlink" x="0px" y="0px"
	 width="24.7px" height="12px" viewBox="0 7 24.7 12" style="enable-background:new 0 7 24.7 12;" xml:space="preserve">
<style type="text/css">
	.st0{fill:#838383;}
</style>
<path id="XMLID_313_" class="st0" d="M0.4,17.4v-3.2l-0.1-0.1V12H0.2c0,0,0,0,0-0.1v-0.1c0,0,0,0,0-0.1c0-0.1,0-0.1,0-0.1v-0.1
	c0,0,0,0,0.1,0v-1l0.1-0.1c0,0,0.1-0.2,0.2-0.4s0.2-0.2,0.3-0.3c0,0,0.1-0.1,0.2-0.2h0.1c0,0,0,0,0.1-0.1c0.1-0.1,0,0,0.1-0.1h1.7
	v-1C3.1,8.1,3,8,3,7.9C2.9,7.8,2.8,7.7,2.8,7.6C2.7,7.5,2.6,7.4,2.6,7.3C2.5,7.2,2.5,7.1,2.5,7C2.8,7,3,7.1,3.1,7.2
	c0.1,0.1,0.2,0.3,0.2,0.4s0.1,0.3,0.1,0.5c0,0.2,0.1,0.3,0.2,0.5v0.8c0,0,0,0,0,0.1v0.1c0,0,0.1,0.1,0.2,0.2C3.9,9.9,4.1,10,4.3,10
	c0.1,0,0.3,0.1,0.5,0.2c0.2,0.1,0.3,0.2,0.4,0.3s0.1,0.2,0.1,0.3c0,0.1,0.1,0.2,0.1,0.4s0,0.3,0.1,0.4c0,0.1,0,0.2,0,0.3
	c0,0.4-0.1,0.9-0.3,1.3c-0.2,0.5-0.4,1-0.7,1.4c-0.2,0.5-0.5,0.9-0.9,1.3S3,16.7,2.7,17c0,0-0.1,0.1-0.2,0.2
	c-0.1,0.1-0.3,0.2-0.4,0.4c-0.2,0.1-0.4,0.3-0.6,0.5c-0.2,0.2-0.4,0.3-0.6,0.4c-0.2,0.1-0.4,0.2-0.5,0.3C0.2,18.9,0.1,18.9,0,19
	v-0.3L0.4,17.4z M6.8,17.4v-3.2l-0.1-0.1v-2c0,0,0,0-0.1-0.1s0-0.1,0-0.1s0-0.1,0-0.2v-0.1c0,0,0-0.1,0.1-0.1v-1
	c0-0.1,0-0.2,0.2-0.4C7,10,7.1,9.9,7.2,9.9c0.1-0.1,0.2-0.2,0.4-0.3c0.1-0.1,0.2-0.1,0.2-0.2h1.8V8.3c0-0.1,0-0.2-0.1-0.3
	C9.4,7.9,9.3,7.8,9.3,7.7C9.2,7.6,9.1,7.5,9.1,7.5C9,7.4,9,7.3,9,7.2c0,0,0,0,0-0.1S9,7,9,7c0.2,0,0.4,0.1,0.5,0.2
	c0.1,0.1,0.2,0.3,0.2,0.4S9.9,8,9.9,8.1c0,0.2,0.1,0.3,0.2,0.4v0.8c0,0,0,0,0,0.1v0.1c0,0,0.1,0.1,0.2,0.1c0.2,0.1,0.3,0.2,0.5,0.3
	s0.4,0.2,0.6,0.3c0.2,0.1,0.3,0.2,0.3,0.3c0.1,0.1,0.1,0.2,0.1,0.3c0,0.1,0.1,0.2,0.1,0.4c0,0.2,0,0.2,0,0.4s0,0.2,0,0.3
	c0,0.4-0.1,0.8-0.2,1.2c-0.2,0.4-0.3,0.8-0.5,1.1c-0.1,0.1-0.2,0.2-0.2,0.3s-0.1,0.2-0.1,0.3c0,0.1-0.1,0.2-0.1,0.3
	s-0.1,0.2-0.1,0.3c0,0,0,0-0.1,0.1c0,0.1-0.1,0.1-0.2,0.2c-0.1,0.1-0.1,0.1-0.1,0.2S10.2,16,10.2,16s0,0,0,0.1c0,0.1,0,0.1,0,0.1
	l-0.9,1c0,0.1-0.1,0.2-0.2,0.3c-0.1,0.1-0.3,0.3-0.5,0.4C8.4,18,8.2,18.2,8,18.3s-0.4,0.3-0.6,0.4C7.2,18.8,7,18.9,6.9,19
	c-0.1,0.1-0.2,0.1-0.3,0.1v-0.3L6.8,17.4z M13.2,14.2l-0.1-0.1V12H13c0,0,0,0,0-0.1v-0.1c0,0,0,0,0-0.1c0-0.1,0-0.1,0-0.1v-0.1
	c0,0,0,0,0.1,0v-1c0-0.1,0-0.2,0.1-0.4c0.1-0.1,0.2-0.2,0.3-0.3c0.1-0.1,0.2-0.2,0.4-0.3c0.1-0.1,0.2-0.1,0.2-0.2h1.7v-1
	c0-0.1,0-0.2-0.1-0.3c-0.1-0.1-0.1-0.2-0.2-0.3c-0.1-0.1-0.1-0.2-0.2-0.2c-0.1-0.1-0.1-0.2-0.1-0.3c0-0.1,0-0.1,0-0.1s0-0.1,0.1-0.1
	c0.2,0,0.3,0.1,0.4,0.2c0.1,0.1,0.2,0.3,0.2,0.5C16,7.9,16,8.1,16,8.2c0,0.2,0.1,0.3,0.2,0.4v0.8l-0.1,0.1l0,0l0,0
	c0.1,0.1,0.2,0.1,0.3,0.2c0.1,0.1,0.2,0.1,0.3,0.2c0.5,0.1,0.6,0.1,0.7,0.1s0.2,0.1,0.2,0.1c0.1,0.1,0.3,0.2,0.4,0.3
	c0.1,0.1,0.2,0.3,0.2,0.4c0.1,0.2,0.1,0.3,0.1,0.5s0,0.3,0,0.5c0,0.3,0,0.5-0.1,0.8c-0.1,0.2-0.2,0.5-0.3,0.7
	c-0.1,0.2-0.2,0.5-0.3,0.7c-0.1,0.2-0.3,0.4-0.4,0.7c0,0.1-0.1,0.2-0.1,0.3S17,15.2,17,15.3c0,0,0,0-0.1,0.1c0,0.1-0.1,0.1-0.2,0.2
	c-0.1,0.1-0.1,0.1-0.2,0.2s-0.1,0.1-0.1,0.1s0,0,0,0.1c0,0.1,0,0.1,0,0.1l-0.9,1c0,0.1-0.1,0.1-0.2,0.3c-0.1,0.1-0.3,0.2-0.5,0.4
	c-0.2,0.1-0.4,0.3-0.6,0.5c-0.2,0.2-0.4,0.3-0.6,0.4s-0.4,0.2-0.5,0.3c-0.2,0.1-0.3,0.1-0.3,0.1c0-0.2,0-0.5,0.1-0.8
	s0.2-0.5,0.2-0.8v-3.3H13.2z M19.2,18.9c0.1-0.3,0.1-0.5,0.2-0.8c0.1-0.2,0.1-0.5,0.2-0.8v-3.1l-0.1-0.1V12h-0.1c0,0,0,0,0-0.1v-0.1
	c0,0,0,0,0-0.1c0-0.1,0-0.1,0-0.1v-0.1c0,0,0,0,0.1,0v-1c0,0,0.1-0.1,0.2-0.1c0.1-0.1,0.1-0.2,0.2-0.3c0.1-0.1,0.2-0.2,0.3-0.3
	c0.1-0.1,0.2-0.2,0.3-0.2l0,0l0,0c0,0,0,0,0-0.1V9.4h1.8V8.3c0-0.1,0-0.2-0.1-0.3c-0.1-0.1-0.1-0.2-0.2-0.3
	c-0.1-0.1-0.1-0.2-0.2-0.3s-0.1-0.2-0.1-0.3c0,0,0,0,0-0.1s0-0.1,0.1-0.1c0.2,0,0.4,0.1,0.5,0.2s0.2,0.3,0.2,0.4
	c0.1,0.2,0.1,0.4,0.1,0.5c0,0.1,0.1,0.3,0.2,0.5v0.7c0,0,0,0,0,0.1v0.1c0,0,0,0,0.1,0.1c0,0,0,0,0.1,0c0,0,0.1,0.1,0.2,0.1
	c0.1,0.1,0.2,0.1,0.3,0.2c0.1,0.1,0.2,0.2,0.3,0.2c0.1,0.1,0.2,0.1,0.2,0.1c0.1,0.1,0.3,0.2,0.4,0.3c0.1,0.1,0.2,0.3,0.2,0.4
	c0.1,0.2,0.1,0.3,0.1,0.5s0,0.3,0,0.5c0,0.3,0,0.5-0.1,0.7s-0.1,0.5-0.2,0.7s-0.2,0.4-0.3,0.7c-0.1,0.2-0.2,0.4-0.4,0.6
	c0,0,0,0.1-0.1,0.1c0,0.1-0.1,0.1-0.1,0.2s-0.1,0.1-0.1,0.2s-0.1,0.1-0.1,0.1c-0.1,0.1-0.2,0.2-0.3,0.3c0,0.3-0.1,0.4-0.2,0.6
	l-0.9,1c0,0.1-0.1,0.2-0.2,0.3c-0.1,0.1-0.3,0.2-0.4,0.4c-0.1,0.2-0.3,0.2-0.5,0.3s-0.3,0.2-0.3,0.2l-1,0.7c0,0-0.1,0-0.2,0.1
	C19.3,18.9,19.3,19,19.2,18.9C19.2,19,19.2,18.9,19.2,18.9L19.2,18.9z"/>
</svg>
