<?xml version="1.0" encoding="utf-8"?>
<!-- Generator: Adobe Illustrator 19.0.0, SVG Export Plug-In . SVG Version: 6.00 Build 0)  -->
<svg version="1.1" id="Layer_1" xmlns="http://www.w3.org/2000/svg" xmlns:xlink="http://www.w3.org/1999/xlink" x="0px" y="0px"
	 width="11.9px" height="11.9px" viewBox="-5 7.1 11.9 11.9" style="enable-background:new -5 7.1 11.9 11.9;" xml:space="preserve"
	>
<style type="text/css">
	.st0{fill:#838383;}
</style>
<path id="XMLID_306_" class="st0" d="M-4.6,17.5v-3.2l-0.1-0.1v-2.1h-0.1V12v-0.1c0,0,0,0,0-0.1v-0.1v-0.1c0,0,0,0,0.1,0v-1.1
	c0.1,0,0.1,0,0.1-0.1s0,0,0-0.1c0-0.1,0,0,0-0.1c0,0,0-0.1,0.1-0.1s0.2-0.2,0.4-0.3C-4,9.7-3.8,9.6-3.6,9.5h1.2h0.1
	c0.1,0,0.1,0,0.2,0c0.1,0,0.1,0,0.2,0V8.4C-1.9,8.2-2,8.1-2,8c-0.1-0.1-0.2-0.2-0.2-0.3c-0.1-0.1-0.2-0.2-0.2-0.3
	c-0.1-0.1-0.1-0.2-0.1-0.3c0.2,0,0.4,0.1,0.5,0.2c0.1,0.1,0.2,0.3,0.3,0.4C-1.6,7.9-1.6,8-1.5,8.2c0,0.2,0.1,0.4,0.2,0.5v0.7
	c0,0,0,0,0,0.1c0,0,0,0,0,0.1c0,0,0.1,0.1,0.2,0.2C-1,9.9-1,9.9-0.8,10c0.2,0.1,0.4,0.1,0.6,0.2c0.2,0.1,0.3,0.2,0.4,0.3
	c0.1,0.2,0.2,0.4,0.3,0.7c0.1,0.2,0.1,0.5,0.1,0.7c0,0.3-0.1,0.6-0.2,1c-0.2,0.4-0.3,0.7-0.5,1.1c-0.2,0.4-0.4,0.7-0.6,1.1
	c-0.2,0.3-0.4,0.6-0.6,0.8V16l-0.1,0.1l-0.9,1c0,0.1-0.1,0.2-0.2,0.3c-0.1,0.1-0.3,0.2-0.4,0.4c-0.2,0.1-0.3,0.2-0.5,0.3
	s-0.3,0.2-0.3,0.2c-0.2,0.1-0.4,0.3-0.6,0.4C-4.5,18.8-4.8,19-5,19v-0.3L-4.6,17.5z M1.8,17.5v-3.2l-0.1-0.1v-2
	c0-0.1-0.1-0.1-0.1-0.2c0-0.1,0-0.2,0-0.2s0,0,0.1-0.1c0,0,0.1-0.1,0.1,0v-1c0,0,0,0,0-0.1c0,0,0-0.1,0.1-0.1c0-0.1,0.1-0.1,0.1-0.2
	c-0.1-0.1,0-0.2,0-0.2C2.1,10,2.2,9.8,2.4,9.7c0.1-0.1,0.3-0.2,0.5-0.2c0.3,0,0.5,0,0.8,0s0.6,0,0.8-0.1v-1c0-0.1,0-0.2-0.1-0.3
	S4.3,7.9,4.2,7.8c0-0.1-0.1-0.2-0.2-0.2s0-0.2,0-0.3V7.2c0,0,0-0.1,0.1-0.1c0.2,0,0.3,0.1,0.5,0.2c0.1,0.1,0.2,0.3,0.2,0.5
	C4.9,8,4.9,8.2,4.9,8.3c0,0.2,0.1,0.3,0.2,0.3c0,0,0,0.1,0,0.2c0,0.1,0,0.2,0,0.2s0,0.1,0,0.2c0,0.1,0,0.1,0,0.1s0,0,0,0.1v0.1
	c0,0,0.1,0.1,0.2,0.2c0.1,0.1,0.3,0.1,0.5,0.2c0.1,0.2,0.2,0.3,0.4,0.4c0.2,0.1,0.3,0.2,0.4,0.3c0.1,0.2,0.2,0.4,0.3,0.7
	S7,11.8,7,12.1s-0.1,0.6-0.2,1c-0.1,0.4-0.3,0.8-0.5,1.1c-0.2,0.4-0.4,0.8-0.6,1.1c-0.2,0.3-0.4,0.6-0.6,0.8c0,0,0,0-0.1,0.1
	s-0.1,0.1-0.2,0.1c0,0.1-0.1,0.1-0.1,0.2l-0.1,0.1l-0.1,0.1l-0.1,0.1c0,0.1-0.1,0.1-0.1,0.1L4.2,17c0,0,0,0.1-0.1,0.1
	c0,0.1,0,0.1-0.1,0.1c0,0-0.1,0-0.1,0.1c-0.1,0-0.1,0-0.1,0.1c0,0,0,0-0.1,0.1l-0.1,0.1l-0.1,0.1l-0.1,0.1C3.3,17.9,3.2,18,3,18.1
	c-0.2,0.1-0.4,0.3-0.5,0.4c-0.2,0.1-0.4,0.3-0.6,0.4c-0.2,0.1-0.4,0.2-0.5,0.2v-0.3L1.8,17.5z"/>
</svg>
