<?xml version="1.0" encoding="utf-8"?>
<!-- Generator: Adobe Illustrator 19.0.0, SVG Export Plug-In . SVG Version: 6.00 Build 0)  -->
<svg version="1.1" id="Layer_1" xmlns="http://www.w3.org/2000/svg" xmlns:xlink="http://www.w3.org/1999/xlink" x="0px" y="0px"
	 width="11.1px" height="11.2px" viewBox="-5 7.8 11.1 11.2" style="enable-background:new -5 7.8 11.1 11.2;" xml:space="preserve"
	>
<style type="text/css">
	.st0{fill:#838383;}
</style>
<path id="XMLID_99_" class="st0" d="M-3.9,16.9c0-0.1,0-0.1,0-0.2S-4,16.6-4,16.6s-0.1,0-0.1-0.1l-0.1-0.1c-0.2-0.3-0.4-0.6-0.5-0.9
	c-0.1-0.3-0.1-0.7-0.2-1c0,0,0-0.1-0.1-0.1v-2c0.1-0.2,0.1-0.4,0.2-0.6c0.1-0.2,0.1-0.3,0.2-0.5S-4.5,11-4.5,11
	c0-0.1,0.1-0.1,0.1-0.2c0.1-0.1,0.1-0.2,0.2-0.3c0.1-0.1,0.1-0.2,0.2-0.3c0-0.1,0.1-0.2,0.1-0.2l1.1-1.1c0.1,0,0.1,0,0.2,0
	c0,0,0.1,0,0.1-0.1c0,0,0-0.1,0.1-0.1l0.1-0.1C-2,8.4-1.7,8.3-1.4,8.2c0.3-0.1,0.7-0.2,1-0.3l0,0l0,0h1.9l0.6,0.2
	c0.2,0.1,0.3,0.1,0.5,0.2c0.2,0,0.2,0.1,0.3,0.1C3,8.4,3,8.5,3.1,8.6c0.1,0.1,0.2,0.1,0.3,0.2c0.1-0.1,0.2,0,0.3,0
	c0.1,0.1,0.2,0.1,0.2,0.1L5,10c0,0.1,0,0.1,0,0.2c0,0,0,0.1,0.1,0.1c0,0,0.1,0,0.1,0.1c0,0.1,0.1,0.1,0.1,0.1
	c0.2,0.3,0.3,0.6,0.4,0.9c0.1,0.3,0.2,0.7,0.3,1c0,0,0,0,0,0.1l0,0v1.9L5.8,15c-0.1,0.2-0.1,0.3-0.2,0.5c0,0.2-0.1,0.2-0.1,0.3
	s-0.1,0.1-0.2,0.3c-0.1,0.1-0.1,0.2-0.2,0.3C5,16.5,5,16.6,4.9,16.7C5,16.7,5,16.8,5,16.9L3.9,18c-0.1,0-0.1,0-0.2,0s-0.1,0-0.1,0.1
	c0,0,0,0.1-0.1,0.1l-0.1,0.1c-0.3,0.2-0.6,0.3-0.9,0.4c-0.3,0.1-0.7,0.2-1,0.3c0,0-0.1,0-0.1,0.1h-1.8c-0.3-0.2-0.5-0.2-0.6-0.3
	c-0.2-0.1-0.3-0.1-0.5-0.1c-0.1,0-0.2-0.1-0.3-0.1s-0.1-0.1-0.2-0.1c-0.1-0.1-0.2-0.1-0.3-0.2c-0.1-0.1-0.2-0.1-0.3-0.2
	C-2.7,18-2.8,18-2.8,18L-3.9,16.9z M-3,16.7h1.3v-5h0.1c0,0.2,0,0.4,0.1,0.6c0,0.2,0.1,0.4,0.2,0.6c0.1,0.2,0.1,0.4,0.2,0.5
	c0,0.1,0.1,0.3,0.1,0.4c0.1,0.4,0.2,0.7,0.2,1.1c0.1,0.3,0.2,0.7,0.3,1l0,0l0,0c0,0,0,0,0,0.1c0,0.1,0,0.1,0,0.2s0,0.1,0,0.2
	c0,0.1,0,0.1,0,0.1s0,0.1,0.1,0.1l0.1,0.1H1c0-0.1,0.1-0.3,0.1-0.4c0.1-0.1,0.1-0.3,0.2-0.4c0.1-0.5,0.2-0.9,0.3-1.4
	c0.4-0.4,0.5-0.8,0.6-1.3c0.1-0.3,0.2-0.5,0.3-0.8c0.1-0.3,0.1-0.6,0.1-0.9h0.1v5.2h1.5v-6.6H1.9c0,0.1,0,0.2-0.1,0.4
	c-0.1,0.2-0.1,0.5-0.2,0.7c-0.1,0.3-0.2,0.6-0.3,0.9c0,0.3-0.1,0.6-0.2,0.9c-0.1,0.2-0.2,0.4-0.2,0.6c-0.1,0.2-0.1,0.2-0.1,0.2v0.7
	c0,0,0,0-0.1,0.1c-0.1,0.1-0.1,0.1-0.1,0.1s0,0-0.1,0l0,0V14c0,0,0-0.1-0.1-0.3c-0.1-0.1-0.2-0.4-0.3-0.6c0-0.3-0.1-0.6-0.2-0.9
	c-0.1-0.3-0.2-0.6-0.3-0.9s-0.1-0.6-0.2-0.8c0-0.2,0-0.3,0-0.4H-3V16.7z"/>
</svg>
