<?xml version="1.0" encoding="utf-8"?>
<!-- Generator: Adobe Illustrator 19.0.0, SVG Export Plug-In . SVG Version: 6.00 Build 0)  -->
<svg version="1.1" id="Layer_1" xmlns="http://www.w3.org/2000/svg" xmlns:xlink="http://www.w3.org/1999/xlink" x="0px" y="0px"
	 width="10.7px" height="11.4px" viewBox="-6 7.6 10.7 11.4" style="enable-background:new -6 7.6 10.7 11.4;" xml:space="preserve"
	>
<style type="text/css">
	.st0{fill:#838383;}
</style>
<path id="XMLID_41_" class="st0" d="M-0.8,12c-0.2,0-0.4,0-0.7,0c-0.2,0-0.4,0.1-0.7,0.1c-0.2,0-0.4,0-0.7,0c-0.1,0-0.4-0.1-0.6-0.2
	c-0.2-0.2-0.5-0.4-0.7-0.7c-0.2-0.3-0.4-0.6-0.5-0.9c-0.2-0.3-0.4-0.6-0.6-1C-5.5,9-5.7,8.8-6,8.6c0.7,0,1.3,0,1.8,0s0.9,0,1.3,0
	s0.6,0,0.9,0.1c0.2,0.1,0.4,0.2,0.6,0.4S-1.2,9.5-1,9.9c0.1,0.4,0.3,0.9,0.4,1.5c0.1-0.1,0.1-0.2,0.1-0.4c0-0.2,0-0.2,0-0.4
	c0-0.2,0-0.2,0-0.4c0-0.1,0-0.2,0.1-0.4c0.1-0.4,0.3-0.8,0.5-1c0.3-0.2,0.5-0.4,0.8-0.5C1.2,8.2,1.4,8,1.7,8C2,8,2.3,7.9,2.6,7.9
	s0.7-0.1,1-0.1s0.7-0.1,1-0.1C4.3,7.9,4,8.3,3.9,8.6C3.7,9,3.5,9.4,3.4,9.7c-0.1,0.3-0.2,0.7-0.3,1C3,11,2.8,11.2,2.6,11.4
	c-0.3,0.2-0.6,0.3-1.1,0.4s-1.1-0.1-1.8-0.2v2.1h2.8v1.4H1.6L1.1,19h-3.4l-0.5-3.9h-0.8v-1.4h2.8V12z"/>
</svg>
