<?xml version="1.0" encoding="utf-8"?>
<!-- Generator: Adobe Illustrator 19.0.0, SVG Export Plug-In . SVG Version: 6.00 Build 0)  -->
<svg version="1.1" id="Layer_1" xmlns="http://www.w3.org/2000/svg" xmlns:xlink="http://www.w3.org/1999/xlink" x="0px" y="0px"
	 width="10.4px" height="12px" viewBox="-6 7 10.4 12" style="enable-background:new -6 7 10.4 12;" xml:space="preserve">
<style type="text/css">
	.st0{fill:#838383;}
</style>
<path id="XMLID_102_" class="st0" d="M-5.1,13.5c0,0.1,0,0.2-0.1,0.3c-0.1,0.1-0.2,0.1-0.3,0.1s-0.2,0-0.3-0.1
	C-5.9,13.7-6,13.6-6,13.5s0-0.2,0.1-0.3S-5.7,13-5.5,13c0.1,0,0.2,0,0.3,0.1C-5.1,13.2-5.1,13.4-5.1,13.5z M-5,14.6
	c0,0.2,0,0.3-0.1,0.4c-0.1,0-0.2,0.1-0.4,0.1c-0.1,0-0.2-0.1-0.3-0.1c-0.1-0.1-0.1-0.2-0.1-0.4c0-0.1,0-0.2,0.1-0.3
	c0.1-0.1,0.2-0.1,0.3-0.1s0.2,0,0.3,0.1C-5.1,14.4-5,14.5-5,14.6z M-4.3,12.6c0,0.1,0,0.2-0.1,0.3s-0.2,0.2-0.3,0.2
	c-0.2,0-0.3-0.1-0.4-0.2c-0.1-0.1-0.1-0.2-0.1-0.3c0-0.1,0-0.2,0.1-0.3c0.1-0.1,0.2-0.2,0.4-0.2c0.1,0,0.2,0,0.3,0.1
	C-4.3,12.3-4.3,12.5-4.3,12.6z M-4.1,15.4c0,0.1,0,0.2-0.1,0.3c-0.1,0.1-0.2,0.1-0.4,0.1c-0.1,0-0.2,0-0.3-0.1
	c-0.1-0.1-0.2-0.2-0.2-0.3s0-0.2,0.1-0.3C-4.9,15-4.8,15-4.7,15c0.1,0,0.2,0,0.3,0.1C-4.1,15.1-4.1,15.2-4.1,15.4z M-3.4,14
	c0,0.2-0.1,0.3-0.2,0.4c-0.1,0.1-0.3,0.2-0.4,0.2c-0.2,0-0.3-0.1-0.4-0.2c-0.2-0.1-0.3-0.3-0.3-0.4c0-0.2,0.1-0.3,0.2-0.4
	c0.1-0.1,0.3-0.3,0.5-0.3c0.1,0,0.2,0,0.3,0.1l2.9-2.9l-1.8-1.7l0.2-0.2l1.7,1.7V7h0.2v3.3l1.9-1.9l0.2,0.2l-2,2l2.8,2.8
	c0.1-0.1,0.2-0.1,0.3-0.1c0.2,0,0.3,0.1,0.4,0.2c0.1,0.1,0.2,0.3,0.2,0.4c0,0.2-0.1,0.3-0.2,0.4c-0.1,0.1-0.3,0.2-0.5,0.2
	s-0.3-0.1-0.4-0.2C2.1,14.2,2,14,2,13.9c0-0.2,0-0.3,0.1-0.4l-1.8-1.8c0,0.3,0,0.6,0,0.9c0,0.3,0.1,0.6,0.1,0.9l-0.5-0.6l-0.1-0.5
	L0,11.9l0.3-0.3l-0.8-0.8c0,0.7,0,1.4,0,2c0,0.7,0,1.4,0,2L0,15.1l0.5,0.5c0,0.1,0,0.2,0,0.3c0,0.1,0,0.2,0.1,0.3L0,15.9l-0.3-0.4
	l-0.1-0.3L-0.6,15c0,0.2,0,0.5,0,0.7s0,0.5,0,0.7c0.1,0,0.3,0.1,0.4,0.2c0.1,0.2,0.2,0.3,0.2,0.5c0,0.2-0.1,0.3-0.2,0.4
	c-0.1,0.1-0.3,0.2-0.4,0.2s-0.4-0.1-0.5-0.2s-0.2-0.3-0.2-0.4c0-0.2,0.1-0.3,0.2-0.4c0.1-0.1,0.2-0.2,0.3-0.2v-1.9L-1,15.2l-0.4,0.4
	L-2.8,16l0.6-0.9c0,0,0.1-0.1,0.2-0.2s0.2-0.1,0.3-0.2c0.1-0.1,0.2-0.1,0.3-0.1c0.1,0,0.2-0.1,0.2-0.1c0.1,0,0.1,0,0.2,0
	s0.1,0,0.2,0v-3.7L-1.9,12l0.5,0.5v0.8v0.1c0,0.1,0,0.1-0.1,0.2c-0.1,0.1-0.2,0.1-0.2,0.1c0,0.1,0,0.1-0.1,0.1L-2,14v-0.5
	c0-0.2-0.1-0.3-0.1-0.5s-0.1-0.3-0.1-0.4L-2,12l-1.6,1.6C-3.5,13.7-3.4,13.8-3.4,14z M-3.5,14c0-0.1-0.1-0.3-0.2-0.4
	c-0.1-0.1-0.2-0.2-0.3-0.2c-0.2,0-0.3,0.1-0.4,0.2c-0.2,0.1-0.2,0.2-0.2,0.4s0.1,0.3,0.2,0.4c0.1,0.1,0.2,0.1,0.4,0.1
	c0.2,0,0.3-0.1,0.4-0.2S-3.5,14.1-3.5,14z M-2.4,11.5l-0.5,0.2l-1.4-0.2l0.9-0.6h0.1c0.1,0,0.1,0,0.2,0s0.1,0,0.2,0
	c0.1,0,0.1,0,0.1,0c0.2,0,0.3,0,0.5,0.1c0.2,0,0.3,0.1,0.4,0.2L-2.4,11.5z M-2.8,15.2c0,0.1,0,0.2-0.1,0.3c-0.1,0.1-0.2,0.2-0.4,0.2
	s-0.2,0-0.3-0.1c-0.1-0.2-0.1-0.3-0.1-0.4s0-0.3,0.1-0.3c0.1-0.1,0.2-0.1,0.3-0.1s0.2,0,0.3,0.1C-2.8,14.9-2.8,15-2.8,15.2z
	 M-1.7,16.9c0,0.1,0,0.2-0.1,0.3c-0.1,0.1-0.2,0.1-0.3,0.1c-0.1,0-0.2,0-0.3-0.1c-0.1-0.1-0.3-0.2-0.3-0.3s0-0.2,0.1-0.3
	c0.1-0.1,0.2-0.1,0.3-0.1s0.2,0,0.3,0.1C-1.9,16.7-1.7,16.7-1.7,16.9z M-1.4,18.1c0,0.1,0,0.2-0.1,0.3c-0.1,0.1-0.2,0.1-0.3,0.1
	c-0.1,0-0.2,0-0.3-0.1c-0.1-0.1-0.1-0.2-0.1-0.3s0-0.2,0.1-0.3c0.1-0.1,0.2-0.1,0.3-0.1s0.2,0,0.3,0.1C-1.4,17.8-1.4,18-1.4,18.1z
	 M-0.3,18.5c0,0.1,0,0.2-0.2,0.3C-0.6,18.9-0.7,19-0.8,19c-0.1,0-0.2,0-0.3-0.1s-0.2-0.2-0.2-0.3c0-0.1,0.1-0.2,0.2-0.3
	s0.2-0.1,0.3-0.1c0.1,0,0.2,0,0.3,0.1C-0.4,18.3-0.3,18.4-0.3,18.5z M-0.1,17.1c0-0.1-0.1-0.3-0.2-0.4c-0.1-0.1-0.2-0.2-0.4-0.2
	s-0.3,0.1-0.4,0.2c-0.1,0.1-0.2,0.2-0.2,0.4c0,0.2,0.1,0.3,0.2,0.4c0.1,0.1,0.2,0.2,0.4,0.2c0.2,0,0.3-0.1,0.4-0.2
	C-0.2,17.4-0.1,17.2-0.1,17.1z M0.8,18.2c0,0.1,0,0.2-0.1,0.3s-0.2,0.1-0.3,0.1s-0.2,0-0.3-0.1S0,18.3,0,18.2c0-0.1,0-0.2,0.1-0.3
	s0.2-0.1,0.3-0.1s0.2,0,0.3,0.1S0.8,18.1,0.8,18.2z M2.3,11c-0.2,0.1-0.4,0.1-0.6,0.2c-0.2,0.1-0.4,0.1-0.6,0.1l-0.9-0.4l0.5-0.3
	l0.8-0.1c0.3,0.1,0.5,0.2,0.7,0.3c0.3,0.1,0.5,0.2,0.7,0.3L2.3,11z M1.3,17.1c0,0.1,0,0.2-0.1,0.3c-0.1,0.1-0.2,0.1-0.3,0.1
	s-0.2,0-0.3-0.1c-0.1-0.1-0.1-0.2-0.1-0.3s0-0.2,0.1-0.3c0.1-0.1,0.2-0.1,0.3-0.1s0.2,0,0.3,0.1C1.3,16.8,1.3,16.9,1.3,17.1z
	 M1.7,14c0,0.1,0,0.2-0.1,0.3c-0.2,0.1-0.3,0.1-0.4,0.1c-0.1,0-0.2,0-0.3-0.1c-0.2-0.1-0.2-0.2-0.2-0.3s0-0.2,0.1-0.3
	c0.1-0.1,0.2-0.1,0.3-0.1c0.1,0,0.2,0,0.3,0.1S1.7,13.8,1.7,14z M2.3,15c0,0.1,0,0.2-0.1,0.3c-0.2,0.1-0.3,0.2-0.4,0.2
	s-0.2,0-0.3-0.1S1.3,15.2,1.3,15c0-0.1,0-0.2,0.1-0.3s0.2-0.1,0.3-0.1s0.2,0,0.3,0.1C2.2,14.8,2.3,14.9,2.3,15z M3.2,13.9
	c0-0.2-0.1-0.3-0.2-0.4c-0.1-0.1-0.2-0.2-0.4-0.2s-0.3,0.1-0.4,0.2c-0.1,0.1-0.1,0.2-0.1,0.4c0,0.2,0.1,0.3,0.2,0.4
	c0.1,0.1,0.2,0.2,0.4,0.2s0.3-0.1,0.4-0.2C3.2,14.2,3.2,14,3.2,13.9z M3.4,12.5c0,0.1,0,0.2-0.2,0.3c0,0.1-0.2,0.1-0.3,0.1
	s-0.2,0-0.3-0.1c-0.1-0.1-0.2-0.2-0.2-0.3s0-0.2,0.1-0.3C2.7,12.1,2.8,12,2.9,12c0.1,0,0.2,0,0.3,0.1C3.4,12.2,3.4,12.3,3.4,12.5z
	 M3.5,15.3c0,0.1,0,0.2-0.1,0.3S3.1,15.7,3,15.7s-0.2,0-0.3-0.1s-0.2-0.2-0.2-0.3c0-0.1,0-0.2,0.1-0.3c0.1-0.1,0.3-0.2,0.4-0.2
	s0.2,0,0.3,0.1C3.4,15,3.5,15.1,3.5,15.3z M4.4,13.2c0,0.1,0,0.2-0.1,0.3S4.1,13.6,4,13.6s-0.2,0-0.3-0.1c-0.2-0.1-0.3-0.2-0.3-0.3
	c0-0.1,0-0.2,0.1-0.3s0.2-0.1,0.3-0.1s0.2,0,0.3,0.1C4.4,13,4.4,13.1,4.4,13.2z M4.4,14.6c0,0.1,0,0.2-0.1,0.3C4.2,15,4.1,15,3.9,15
	s-0.2,0-0.3-0.1c-0.1-0.1-0.2-0.2-0.2-0.3c0-0.1,0-0.2,0.1-0.3c0.1-0.1,0.2-0.1,0.3-0.1s0.2,0,0.3,0.1C4.4,14.3,4.4,14.4,4.4,14.6z"
	/>
</svg>
