<?xml version="1.0" encoding="utf-8"?>
<!-- Generator: Adobe Illustrator 19.0.0, SVG Export Plug-In . SVG Version: 6.00 Build 0)  -->
<svg version="1.1" id="Layer_1" xmlns="http://www.w3.org/2000/svg" xmlns:xlink="http://www.w3.org/1999/xlink" x="0px" y="0px"
	 width="9.4px" height="10.6px" viewBox="-6 7.4 9.4 10.6" style="enable-background:new -6 7.4 9.4 10.6;" xml:space="preserve">
<style type="text/css">
	.st0{fill:#838383;}
</style>
<path id="XMLID_33_" class="st0" d="M3.1,15.7l-1.5-0.9l0.1,1.6l-0.5-0.1l-0.1-1.9L0.3,14v1.5L-1,14.8v0.9l1.6,1l-0.3,0.5L-1,16.3
	v1.8h-0.6v-1.8l-1.3,0.9l-0.2-0.5l1.6-1v-0.9l-1.4,0.8V14l-0.7,0.4l-0.2,1.9l-0.4,0.1l0.1-1.6l-1.6,0.9L-6,15.1l1.5-0.9l-1.4-0.7
	l0.3-0.4L-4,14l0.8-0.4l-1.4-0.9l1.4-0.8L-4,11.5l-1.7,0.8l-0.2-0.4l1.5-0.7L-6,10.3l0.3-0.5l1.5,0.9V9l0.5,0.2l0.2,1.8l0.6,0.4V9.9
	l1.4,0.8V9.8l-1.6-1.1l0.2-0.5l1.4,0.9V7.3H-1v1.8l1.4-0.9l0.2,0.5L-1,9.8v0.9l1.4-0.8v1.5L1.1,11l0.1-1.8L1.7,9l-0.1,1.7l1.5-0.9
	l0.4,0.5l-1.6,0.9l1.4,0.7l-0.2,0.4l-1.7-0.8l-0.8,0.4L2,12.7l-1.4,0.8l0.8,0.4l1.7-0.8l0.3,0.4l-1.5,0.7l1.5,0.9L3.1,15.7z
	 M-4.3,12.7l1.2,0.7l1.3-0.7L-3.1,12L-4.3,12.7z M-2.8,10.1v1.4l1.2,0.7v-1.4L-2.8,10.1z M-2.8,15.3l1.2-0.7v-1.4L-2.8,14V15.3z
	 M0.2,10.1L-1,10.8v1.4l1.2-0.7V10.1z M0.2,15.3v-1.4L-1,13.2v1.4L0.2,15.3z M0.5,12l-1.3,0.7l1.3,0.7l1.3-0.7L0.5,12z"/>
</svg>
