<?xml version="1.0" encoding="utf-8"?>
<!-- Generator: Adobe Illustrator 15.1.0, SVG Export Plug-In . SVG Version: 6.00 Build 0)  -->
<!DOCTYPE svg PUBLIC "-//W3C//DTD SVG 1.1//EN" "http://www.w3.org/Graphics/SVG/1.1/DTD/svg11.dtd">
<svg version="1.1" id="Layer_3" xmlns="http://www.w3.org/2000/svg" xmlns:xlink="http://www.w3.org/1999/xlink" x="0px" y="0px"
	 width="96px" height="96px" viewBox="0 0 96 96" enable-background="new 0 0 96 96" xml:space="preserve">
<g>
	<g>
		<path fill="#838383" d="M48,94.373C22.424,94.373,1.627,73.574,1.627,48C1.627,22.424,22.424,1.627,48,1.627
			c25.574,0,46.373,20.797,46.373,46.373C94.373,73.574,73.562,94.373,48,94.373z M48,2.815C23.09,2.815,2.815,23.09,2.815,48
			C2.815,72.913,23.09,93.181,48,93.181c24.913,0,45.187-20.268,45.187-45.181C93.187,23.09,72.913,2.815,48,2.815z"/>
	</g>
	<polyline fill="#838383" points="90.707,65.693 90.707,80.719 5.104,80.719 5.104,65.693 	"/>
	<g>
		<path fill="#FFFFFF" d="M30.253,78.438h-2.461l-1.506-5.728c-0.192-0.671-0.302-1.407-0.405-2.158h-0.016
			c-0.074,0.741-0.203,1.412-0.381,2.105l-1.499,5.78h-2.337l-2.64-10.399h2.145l1.418,5.747c0.165,0.67,0.291,1.386,0.384,2.119
			h0.016c0.115-0.704,0.214-1.395,0.397-2.045l1.588-5.809h2.128l1.604,5.786c0.146,0.564,0.322,1.289,0.41,2.025h0.017
			c0.109-0.736,0.234-1.376,0.382-1.993l1.425-5.797h1.995L30.253,78.438z"/>
		<path fill="#FFFFFF" d="M34.694,78.438V68.039h2.003v10.399H34.694z"/>
		<path fill="#FFFFFF" d="M45.22,78.438l-3.051-5.259c-0.447-0.791-0.822-1.55-1.13-2.227c0.063,0.895,0.099,2.524,0.099,3.771
			v3.714h-1.936V68.039h2.6l2.898,4.959c0.479,0.8,0.896,1.663,1.275,2.451c-0.074-1.05-0.108-2.898-0.108-4.178v-3.244h1.932
			v10.399L45.22,78.438L45.22,78.438z"/>
		<path fill="#FFFFFF" d="M56.333,78.438l-3.069-5.259c-0.447-0.791-0.799-1.55-1.107-2.227c0.062,0.895,0.096,2.524,0.096,3.771
			v3.714h-1.938V68.039h2.61l2.887,4.959c0.479,0.8,0.896,1.663,1.273,2.451c-0.08-1.05-0.111-2.898-0.111-4.178v-3.244h1.939
			v10.399L56.333,78.438L56.333,78.438z"/>
		<path fill="#FFFFFF" d="M61.426,78.438V68.039h5.647v1.676h-3.649v2.567h3.469v1.636h-3.469v2.829h3.649v1.701L61.426,78.438
			L61.426,78.438z"/>
		<path fill="#FFFFFF" d="M74.33,78.438l-2.802-4.3h-0.171v4.3h-1.998V68.039c0.816-0.045,1.787-0.06,2.99-0.06
			c2.291,0,3.771,0.797,3.771,2.919c0,1.544-1.112,2.651-2.556,2.896c0.276,0.379,0.564,0.778,0.821,1.141l2.407,3.5L74.33,78.438
			L74.33,78.438z M72.145,69.609c-0.292,0-0.574,0.011-0.787,0.043v3.005c0.138,0.01,0.416,0.032,0.725,0.032
			c1.203,0,1.939-0.609,1.939-1.589C74.021,70.1,73.408,69.609,72.145,69.609z"/>
	</g>
	<g>
		<g>
			<path fill="#838383" d="M31.436,17.307h1.108c1.785,5.237,4.244,14.201,7.387,26.869c2.014,8.125,3.409,13.106,4.165,14.949
				c0.751,1.843,1.952,2.867,3.623,3.068c0.537,0.064,0.797,0.324,0.797,0.763c0,0.319-0.129,0.479-0.406,0.479l-0.339-0.039
				c-1.478-0.18-3.337-0.264-5.597-0.264c-3.492,0-5.725,0.08-6.704,0.235c-0.508,0-0.754-0.205-0.754-0.614
				c0-0.294,0.193-0.48,0.562-0.547c1.353-0.193,2.296-0.529,2.821-1.008c0.511-0.479,0.78-1.252,0.78-2.271
				c0-0.981-0.493-3.442-1.463-7.388l-1.419-5.901c-0.828,0-4.54,0.072-11.141,0.202c-1.667,6.348-2.498,10.345-2.498,12.005
				c0,1.396,0.409,2.44,1.232,3.119c0.824,0.677,1.64,1.049,2.441,1.118c0.577,0.069,0.876,0.325,0.876,0.772
				c0,0.178-0.097,0.343-0.288,0.502c-2.556-0.155-4.098-0.244-4.632-0.244c-2.673,0-4.479,0.043-5.405,0.139
				c-0.52,0-0.775-0.207-0.775-0.619c0-0.351,0.225-0.585,0.672-0.681c1.832-0.338,3.239-2.132,4.211-5.344
				c0.975-3.234,2.499-9.031,4.562-17.403C27.136,31.58,29.196,24.278,31.436,17.307z M30.483,24.787
				c-1.49,4.348-3.224,10.661-5.212,18.94c1.653-0.116,2.838-0.168,3.546-0.168l6.726,0.168c-0.588-2.376-1.416-5.535-2.479-9.476
				C31.747,29.565,30.885,26.411,30.483,24.787z"/>
			<path fill="#838383" d="M48.1,63.579h-0.012l-0.338-0.032c-1.468-0.191-3.341-0.289-5.586-0.289
				c-3.455,0-5.703,0.087-6.688,0.241c0,0,0,0-0.006,0c-0.796,0-0.911-0.48-0.911-0.762c0-0.214,0.085-0.585,0.677-0.692
				c1.318-0.183,2.246-0.512,2.737-0.959c0.485-0.459,0.73-1.172,0.73-2.164c0-0.964-0.489-3.437-1.456-7.342l-1.387-5.783
				c-1.025,0-4.685,0.064-10.91,0.194c-1.631,6.228-2.454,10.218-2.454,11.845c0,1.348,0.387,2.365,1.178,3.005
				c0.797,0.659,1.588,1.026,2.357,1.087c0.84,0.106,1.025,0.564,1.025,0.916c0,0.222-0.114,0.432-0.338,0.617l-0.051,0.038
				l-0.054-0.005c-2.597-0.16-4.102-0.24-4.621-0.24c-2.717,0-4.479,0.047-5.396,0.133l0,0c-0.775,0-0.932-0.409-0.932-0.756
				c0-0.32,0.136-0.712,0.796-0.841c1.762-0.342,3.141-2.089,4.104-5.243c0.974-3.256,2.503-9.104,4.549-17.396
				c1.881-7.626,3.971-14.992,6.186-21.904l0.032-0.108h1.321l0.032,0.108c1.785,5.2,4.268,14.251,7.392,26.881
				c2.01,8.072,3.41,13.102,4.165,14.922c0.725,1.781,1.904,2.788,3.508,2.985c0.766,0.097,0.922,0.542,0.922,0.904
				C48.656,63.345,48.453,63.579,48.1,63.579z M42.162,62.972c2.252,0,4.146,0.09,5.614,0.276l0.332,0.032
				c0.114,0,0.257-0.032,0.257-0.331c0-0.234-0.074-0.534-0.661-0.608c-1.708-0.213-2.973-1.277-3.752-3.163
				c-0.751-1.838-2.155-6.873-4.167-14.958c-3.107-12.549-5.571-21.551-7.355-26.771h-0.895c-2.193,6.887-4.266,14.211-6.148,21.796
				c-2.046,8.292-3.572,14.149-4.555,17.397c-0.989,3.273-2.438,5.104-4.327,5.456c-0.489,0.106-0.556,0.351-0.556,0.541
				c0,0.224,0.077,0.469,0.614,0.469c0.907-0.097,2.686-0.127,5.414-0.127c0.524,0,2.013,0.073,4.57,0.233
				c0.125-0.118,0.192-0.229,0.192-0.342c0-0.235-0.082-0.555-0.759-0.618c-0.818-0.076-1.668-0.461-2.51-1.15
				c-0.854-0.706-1.28-1.801-1.28-3.242c0-1.669,0.833-5.715,2.493-12.032l0.031-0.115h0.115c6.558-0.129,10.305-0.204,11.14-0.204
				h0.114l1.447,6.026C38.52,55.509,39,57.95,39,58.94c0,1.066-0.28,1.873-0.819,2.388c-0.545,0.501-1.491,0.841-2.897,1.024
				c-0.37,0.085-0.421,0.25-0.421,0.403c0,0.229,0.071,0.469,0.597,0.469C36.429,63.046,38.693,62.972,42.162,62.972z M25.08,43.893
				l0.057-0.198c1.969-8.252,3.727-14.632,5.211-18.958l0.157-0.479l0.115,0.49c0.421,1.627,1.286,4.812,2.587,9.478
				c1.058,3.89,1.904,7.075,2.493,9.469l0.047,0.193l-6.938-0.177c-0.714,0-1.905,0.062-3.524,0.171L25.08,43.893z M28.818,43.413
				L28.818,43.413l6.542,0.162c-0.588-2.374-1.42-5.487-2.439-9.28c-1.179-4.232-2.007-7.248-2.459-8.991
				c-1.442,4.274-3.112,10.412-4.998,18.267C26.995,43.46,28.124,43.413,28.818,43.413z"/>
		</g>
	</g>
	<g>
		<g>
			<path fill="#838383" d="M47.28,8.359h1.1c1.78,5.242,4.245,14.201,7.389,26.881c2.024,8.123,3.421,13.099,4.175,14.941
				c0.758,1.835,1.952,2.859,3.612,3.066c0.548,0.081,0.801,0.325,0.801,0.763c0,0.324-0.13,0.479-0.407,0.479l-0.341-0.032
				c-1.476-0.191-3.33-0.288-5.589-0.288c-3.5,0-5.728,0.085-6.705,0.238c-0.503,0-0.75-0.195-0.75-0.611
				c0-0.299,0.18-0.479,0.567-0.554c1.345-0.182,2.285-0.511,2.809-0.991c0.518-0.478,0.783-1.246,0.783-2.272
				c0-0.979-0.489-3.44-1.465-7.387l-1.417-5.903c-0.83,0-4.547,0.078-11.143,0.208c-1.675,6.346-2.498,10.343-2.498,11.998
				c0,1.402,0.407,2.44,1.244,3.112c0.812,0.681,1.625,1.056,2.427,1.128c0.583,0.076,0.885,0.332,0.885,0.775
				c0,0.182-0.098,0.335-0.291,0.5c-2.552-0.152-4.102-0.238-4.618-0.238c-2.686,0-4.486,0.055-5.413,0.143
				c-0.52,0-0.775-0.21-0.775-0.624c0-0.362,0.224-0.586,0.672-0.683c1.833-0.342,3.247-2.131,4.212-5.356
				c0.977-3.218,2.492-9.018,4.548-17.393C42.976,22.643,45.042,15.354,47.28,8.359z M46.312,15.851
				c-1.478,4.347-3.211,10.666-5.199,18.948c1.649-0.115,2.827-0.171,3.549-0.171l6.727,0.171c-0.585-2.379-1.42-5.544-2.488-9.473
				C47.608,20.624,46.734,17.478,46.312,15.851z"/>
			<path fill="#838383" d="M63.953,54.639h-0.021l-0.341-0.038c-1.462-0.181-3.321-0.271-5.584-0.271
				c-3.447,0-5.7,0.078-6.692,0.239l0,0c-0.799,0-0.919-0.485-0.919-0.762c0-0.266,0.114-0.592,0.685-0.692
				c1.321-0.182,2.249-0.511,2.739-0.97c0.479-0.447,0.728-1.172,0.728-2.151c0-0.976-0.493-3.446-1.452-7.347l-1.388-5.789
				c-1.023,0.004-4.686,0.081-10.908,0.201c-1.644,6.243-2.473,10.22-2.473,11.847c0,1.348,0.397,2.364,1.183,3.003
				c0.796,0.663,1.588,1.027,2.358,1.095c0.834,0.1,1.016,0.558,1.016,0.916c0,0.221-0.116,0.43-0.34,0.619l-0.042,0.036
				l-0.065-0.006c-2.634-0.165-4.098-0.239-4.611-0.239c-2.661,0-4.473,0.048-5.399,0.128l0,0c-0.802,0-0.928-0.485-0.928-0.774
				c0-0.312,0.137-0.69,0.797-0.824c1.767-0.33,3.148-2.099,4.098-5.254c0.98-3.229,2.51-9.075,4.556-17.39
				c1.875-7.567,3.955-14.934,6.195-21.91l0.04-0.098h1.312l0.041,0.103c1.771,5.233,4.265,14.276,7.381,26.879
				c2.014,8.068,3.409,13.083,4.164,14.931c0.729,1.771,1.911,2.782,3.512,2.975c0.772,0.104,0.928,0.553,0.928,0.905
				C64.495,54.408,64.292,54.639,63.953,54.639z M58.005,54.03c2.273,0,4.165,0.098,5.614,0.277l0.33,0.032
				c0.118,0,0.259-0.032,0.259-0.332c0-0.222-0.075-0.543-0.662-0.606c-1.706-0.214-2.984-1.278-3.752-3.163
				c-0.756-1.858-2.16-6.887-4.177-14.966c-3.088-12.51-5.568-21.506-7.347-26.759h-0.893c-2.221,6.934-4.288,14.266-6.15,21.782
				c-2.046,8.304-3.572,14.17-4.555,17.403c-0.986,3.268-2.438,5.106-4.332,5.457c-0.484,0.098-0.551,0.337-0.551,0.539
				c0,0.22,0.071,0.469,0.618,0.469c0.906-0.091,2.738-0.135,5.405-0.135c0.508,0,1.96,0.086,4.58,0.235
				c0.119-0.112,0.183-0.235,0.183-0.342c0-0.228-0.08-0.555-0.757-0.618c-0.819-0.076-1.67-0.462-2.51-1.163
				c-0.846-0.706-1.277-1.797-1.277-3.239c0-1.665,0.836-5.707,2.498-12.031l0.029-0.109h0.114
				c6.566-0.135,10.32-0.212,11.147-0.212h0.11l1.448,6.023c0.99,3.981,1.471,6.416,1.471,7.416c0,1.076-0.277,1.866-0.811,2.371
				c-0.559,0.495-1.523,0.845-2.909,1.031c-0.373,0.069-0.42,0.251-0.42,0.4c0,0.213,0.066,0.469,0.589,0.469
				C52.272,54.116,54.543,54.03,58.005,54.03z M40.924,34.955l0.049-0.194c1.972-8.244,3.726-14.628,5.211-18.964l0.151-0.471
				l0.12,0.492c0.421,1.609,1.284,4.795,2.587,9.47c1.097,4.033,1.914,7.137,2.496,9.478l0.048,0.189l-6.928-0.173
				c-0.712,0-1.9,0.053-3.525,0.162L40.924,34.955z M44.668,34.476L44.668,34.476l6.529,0.158c-0.567-2.313-1.373-5.357-2.436-9.273
				c-1.187-4.238-2.009-7.257-2.456-8.991c-1.443,4.275-3.11,10.413-4.998,18.258C42.847,34.525,43.974,34.476,44.668,34.476z"/>
		</g>
	</g>
	<g>
		<g>
			<path fill="#838383" d="M72.614,20.878c0.447-0.614,0.759-1.253,0.908-1.925c0.128-0.549,0.33-0.824,0.57-0.824
				c0.133,0,0.288,0.114,0.454,0.344c0.117,0.825,0.283,2.482,0.5,4.976l0.597,6.454c0,0.412-0.182,0.616-0.559,0.616
				c-0.203,0-0.367-0.229-0.528-0.688c-0.883-2.994-2.189-5.487-3.932-7.479c-1.726-1.964-3.623-2.952-5.668-2.952
				c-2.014,0-3.531,0.837-4.561,2.504c-1.024,1.682-1.529,3.45-1.529,5.326c0,2.29,0.555,4.038,1.674,5.255
				c1.117,1.216,3.408,2.59,6.907,4.118c2.568,1.09,4.471,2.16,5.759,3.191c1.265,1.026,2.348,2.473,3.214,4.321
				c0.864,1.85,1.301,3.847,1.301,5.968c0,3.616-1.099,6.856-3.282,9.717c-2.194,2.861-4.864,4.288-8.031,4.288
				c-2.838,0-5.71-1.226-8.588-3.676c-0.57,0.651-0.938,1.395-1.093,2.271c-0.128,0.735-0.346,1.098-0.649,1.098
				c-0.277,0-0.469-0.458-0.576-1.413c-0.117-0.938-0.352-5.364-0.718-13.315c0.062-0.267,0.238-0.408,0.521-0.408
				c0.261,0,0.459,0.251,0.603,0.757c2.561,8.855,6.141,13.293,10.739,13.293c2.285,0,4.072-0.949,5.36-2.839
				c1.29-1.886,1.93-4.054,1.93-6.496c0-1.698-0.343-3.255-1.035-4.666c-0.691-1.412-1.608-2.557-2.748-3.43
				c-1.142-0.869-2.939-1.838-5.404-2.92c-3.159-1.396-5.327-2.717-6.466-3.972c-1.142-1.249-1.972-2.646-2.515-4.211
				c-0.535-1.577-0.8-3.093-0.8-4.55c0-3.05,1.015-5.743,3.016-8.096c2.009-2.362,4.466-3.535,7.385-3.535
				c1.107,0,2.259,0.239,3.463,0.719C70.041,19.166,71.304,19.904,72.614,20.878z"/>
			<path fill="#838383" d="M66.424,64.239c-2.837,0-5.723-1.215-8.578-3.612c-0.49,0.592-0.806,1.297-0.971,2.078
				c-0.148,0.82-0.404,1.229-0.799,1.229c-0.351,0-0.575-0.469-0.713-1.527c-0.111-0.959-0.362-5.568-0.729-13.33v-0.035v-0.016
				c0.089-0.34,0.324-0.524,0.67-0.524c0.325,0,0.57,0.291,0.741,0.863c2.536,8.749,6.1,13.176,10.596,13.176
				c2.223,0,3.98-0.934,5.243-2.77c1.262-1.859,1.913-4.011,1.913-6.421c0-1.663-0.338-3.199-1.024-4.608
				c-0.676-1.387-1.589-2.52-2.707-3.378c-1.117-0.852-2.929-1.822-5.36-2.898c-3.173-1.396-5.359-2.737-6.509-3.992
				c-1.152-1.256-2.013-2.701-2.558-4.271c-0.537-1.577-0.799-3.127-0.799-4.595c0-3.066,1.023-5.816,3.047-8.199
				c2.024-2.384,4.551-3.585,7.491-3.585c1.119,0,2.302,0.247,3.526,0.738c1.177,0.459,2.419,1.171,3.691,2.123
				c0.394-0.567,0.662-1.15,0.793-1.742c0.062-0.239,0.233-0.947,0.725-0.947c0.182,0,0.373,0.125,0.576,0.404l0.021,0.063
				c0.113,0.848,0.295,2.526,0.501,4.988l0.598,6.448c0,0.511-0.255,0.785-0.705,0.785c-0.274,0-0.489-0.264-0.66-0.796
				c-0.874-2.976-2.186-5.476-3.9-7.438c-1.705-1.926-3.559-2.896-5.571-2.896c-1.94,0-3.44,0.817-4.429,2.427
				c-1.006,1.645-1.509,3.41-1.509,5.244c0,2.236,0.56,3.977,1.646,5.149c1.081,1.201,3.4,2.575,6.847,4.086
				c2.562,1.098,4.508,2.179,5.796,3.21c1.285,1.042,2.39,2.516,3.261,4.38c0.874,1.872,1.31,3.903,1.31,6.028
				c0,3.63-1.106,6.938-3.296,9.801C72.358,62.778,69.632,64.239,66.424,64.239z M57.813,60.212l0.117,0.098
				c2.839,2.407,5.701,3.64,8.503,3.64c3.091,0,5.755-1.424,7.896-4.227c2.153-2.828,3.249-6.052,3.249-9.627
				c0-2.089-0.436-4.08-1.289-5.91c-0.837-1.82-1.918-3.26-3.163-4.27c-1.253-1.02-3.188-2.085-5.724-3.164
				c-3.494-1.531-5.817-2.93-6.941-4.164c-1.136-1.236-1.7-3.031-1.7-5.34c0-1.897,0.522-3.721,1.555-5.4
				c1.039-1.702,2.61-2.582,4.679-2.582c2.081,0,4.017,1.016,5.784,3.015c1.736,1.994,3.07,4.528,3.967,7.533
				c0.11,0.354,0.265,0.577,0.382,0.577c0.19,0,0.388-0.062,0.388-0.469l-0.59-6.444c-0.202-2.41-0.374-4.081-0.492-4.925
				c-0.169-0.234-0.286-0.256-0.324-0.256c-0.165,0-0.324,0.256-0.425,0.713c-0.134,0.672-0.463,1.333-0.926,1.97l-0.102,0.114
				L72.545,21c-1.296-0.969-2.562-1.699-3.757-2.176c-1.185-0.468-2.334-0.702-3.409-0.702c-2.839,0-5.295,1.172-7.266,3.48
				c-1.965,2.318-2.974,5.014-2.974,8.003c0,1.436,0.267,2.952,0.8,4.502c0.532,1.531,1.356,2.94,2.477,4.166
				c1.112,1.228,3.284,2.549,6.41,3.935c2.467,1.074,4.3,2.056,5.438,2.931c1.155,0.885,2.101,2.057,2.797,3.492
				c0.705,1.438,1.05,3.032,1.05,4.729c0,2.463-0.66,4.678-1.954,6.586c-1.309,1.935-3.163,2.898-5.494,2.898
				c-4.65,0-8.306-4.508-10.874-13.391c-0.1-0.297-0.251-0.656-0.459-0.656c-0.202,0-0.33,0.094-0.372,0.284
				c0.344,7.742,0.59,12.341,0.725,13.281c0.148,1.238,0.394,1.279,0.417,1.279c0.211,0,0.393-0.342,0.516-0.981
				c0.164-0.895,0.559-1.688,1.135-2.35L57.813,60.212z"/>
		</g>
	</g>
	<g>
		<path fill="#838383" d="M90.121,65.734c-1.129-1.184-2.154-2.435-3.069-3.733c-7.016,2.932-11.087-4.49-10.874-4.55
			c0.145-0.069,6.485-1.491,10.688,3.98c0,0,0.006-0.006,0.014-0.006c0.011-0.005,0.023-0.012,0.047-0.012
			c-3.524-6.152,3.114-9.996,2.961-9.886c-0.109,0.104,2.707,5.698-2.516,10.282c1.024,1.381,2.163,2.706,3.409,3.952"/>
		<path fill="#838383" d="M84.305,57.911c0,0,4.34-6.787-2.186-11.312C81.39,46.09,78.934,54.543,84.305,57.911z"/>
	</g>
	<g>
		<path fill="#838383" d="M5.632,65.734c1.141-1.184,2.16-2.435,3.082-3.733c7.011,2.932,11.087-4.49,10.873-4.55
			c-0.146-0.069-6.481-1.491-10.687,3.98c-0.005,0-0.005-0.006-0.011-0.006s-0.021-0.005-0.037-0.005
			c3.52-6.153-3.117-9.997-2.977-9.893c0.115,0.11-2.698,5.698,2.529,10.285c-1.026,1.38-2.161,2.7-3.41,3.955"/>
		<path fill="#838383" d="M11.457,57.911c0,0-4.342-6.787,2.185-11.312C14.372,46.09,16.832,54.543,11.457,57.911z"/>
	</g>
</g>
</svg>
