<?xml version="1.0" encoding="utf-8"?>
<!-- Generator: Adobe Illustrator 19.0.0, SVG Export Plug-In . SVG Version: 6.00 Build 0)  -->
<svg version="1.1" id="Layer_1" xmlns="http://www.w3.org/2000/svg" xmlns:xlink="http://www.w3.org/1999/xlink" x="0px" y="0px"
	 width="13.8px" height="8.6px" viewBox="-4 8.4 13.8 8.6" style="enable-background:new -4 8.4 13.8 8.6;" xml:space="preserve">
<style type="text/css">
	.st0{fill:#838383;}
</style>
<path id="XMLID_134_" class="st0" d="M2.6,12.1c0,0.1,0,0.2,0,0.2c0,0.1,0,0.3-0.1,0.4l7.3,4.2L9.7,17c-0.1,0-0.1,0-0.2,0
	c-0.1,0-0.1,0-0.2,0c-0.1,0-0.1,0-0.2,0c-0.4-0.1-0.8-0.2-1.1-0.4c-0.4-0.2-0.7-0.3-1.1-0.5c-0.1,0-0.3-0.1-0.5-0.3
	c-0.2-0.1-0.5-0.3-0.8-0.4c-0.3-0.2-0.6-0.4-1-0.6c-0.4-0.2-0.7-0.5-1-0.7c-0.3-0.3-0.6-0.5-0.8-0.7c-0.2-0.2-0.3-0.4-0.4-0.6
	c-0.1,0.1-0.2,0.1-0.3,0.1s-0.3,0-0.4-0.1l-0.8,0.5v0.1C1,13.6,1,13.8,0.9,14c0,0.2-0.2,0.5-0.3,0.7C0.4,14.9,0.2,15,0,15.2
	c-0.2,0.2-0.5,0.3-0.8,0.4c-0.2,0.1-0.5,0.2-0.8,0.3c-0.3,0-0.5,0.1-0.8,0c-0.2-0.1-0.4-0.1-0.6-0.3c-0.1-0.1-0.3-0.2-0.3-0.4
	c-0.1-0.3-0.1-0.6,0-0.8c0.1-0.2,0.3-0.6,0.5-0.8c0.3-0.2,0.6-0.4,0.9-0.5c0.3-0.2,0.6-0.3,1-0.3c0.3-0.2,0.6-0.2,0.9-0.1
	s0.5,0.1,0.7,0.3l0.8-0.6v-0.1c0-0.1,0-0.1,0-0.2l-1.4-0.9c-0.1,0.2-0.2,0.3-0.4,0.3c-0.2,0.1-0.4,0.1-0.6,0.2c-0.2,0-0.4,0-0.7-0.1
	c-0.2,0-0.4-0.1-0.7-0.2C-2.5,11.3-2.8,11.1-3,11c-0.2-0.2-0.4-0.4-0.6-0.6C-3.8,10.2-3.9,10-4,9.8c0-0.2,0-0.4,0-0.7
	c0.1-0.3,0.3-0.5,0.6-0.6c0.3-0.1,0.6-0.1,0.9-0.1s0.7,0.1,1.1,0.3s0.7,0.3,1,0.6c0.3,0.2,0.5,0.5,0.6,0.8s0.2,0.6,0.1,0.9l1.4,0.9
	c0.2-0.1,0.3-0.2,0.4-0.2c0.2,0,0.3,0.1,0.4,0.2c0.1-0.2,0.3-0.5,0.7-0.7c0.4-0.3,0.9-0.6,1.4-0.8c0.5-0.3,1-0.6,1.6-0.8
	c0.6-0.3,1.1-0.5,1.6-0.7s0.9-0.3,1.3-0.3c0.4,0,0.6,0,0.6,0.2L2.6,12.1z M-2.1,11c0.3,0.1,0.5,0.2,0.8,0.2c0.2,0,0.5,0,0.6,0
	c0.2,0,0.3-0.1,0.5-0.2C0,10.9-0.1,10.9,0,10.8c0-0.1,0-0.3,0-0.4s-0.1-0.3-0.3-0.5s-0.3-0.3-0.5-0.5C-1,9.3-1.2,9.1-1.5,9
	C-1.8,8.9-2,8.9-2.3,8.8c-0.2,0-0.5,0-0.6,0c-0.2,0-0.3,0.1-0.5,0.2c-0.1,0.1-0.2,0.2-0.2,0.3c0,0.1,0,0.2,0,0.4s0.1,0.3,0.3,0.5
	c0.1,0.2,0.3,0.3,0.5,0.5C-2.7,10.8-2.4,10.9-2.1,11z M-0.9,15.3c0.3-0.1,0.5-0.2,0.7-0.4c0.2-0.2,0.4-0.4,0.5-0.5
	c0.1-0.2,0.2-0.3,0.3-0.5c0-0.2,0-0.3,0-0.4c0-0.1-0.1-0.2-0.2-0.3s-0.3-0.1-0.5-0.1c-0.2,0-0.4,0-0.6,0c-0.3,0-0.5,0.1-0.8,0.2
	c-0.3,0.1-0.5,0.2-0.7,0.4c-0.2,0.1-0.4,0.3-0.5,0.4c-0.1,0.2-0.2,0.4-0.3,0.5c0,0.2,0,0.3,0,0.4c0,0.1,0.1,0.2,0.2,0.3
	s0.3,0.1,0.5,0.2c0.2,0,0.4,0,0.6,0C-1.4,15.4-1.2,15.4-0.9,15.3z M2.1,12.6c0.1,0,0.2,0,0.2-0.1c0.1,0,0.1-0.1,0.1-0.2
	c0-0.1,0-0.2-0.1-0.2C2.3,12,2.2,12,2.1,12s-0.2,0-0.2,0.1c-0.1,0.1-0.1,0.1-0.1,0.2c0,0.1,0,0.1,0.1,0.2C1.9,12.6,2,12.6,2.1,12.6z
	"/>
</svg>
