<?xml version="1.0" encoding="utf-8"?>
<!-- Generator: Adobe Illustrator 19.0.0, SVG Export Plug-In . SVG Version: 6.00 Build 0)  -->
<svg version="1.1" id="Layer_1" xmlns="http://www.w3.org/2000/svg" xmlns:xlink="http://www.w3.org/1999/xlink" x="0px" y="0px"
	 width="13.3px" height="12.2px" viewBox="-4 6.8 13.3 12.2" style="enable-background:new -4 6.8 13.3 12.2;" xml:space="preserve"
	>
<style type="text/css">
	.st0{fill:#838383;}
</style>
<path id="XMLID_326_" class="st0" d="M-2.4,17.4c0,0.1,0,0.2-0.1,0.3c0,0.1-0.1,0.2-0.1,0.4c-0.1,0.1-0.1,0.2-0.2,0.4
	c-0.1,0.2-0.2,0.1-0.3,0.2c-0.1,0-0.2,0-0.3-0.1c-0.1-0.1-0.2-0.1-0.3-0.2c-0.1,0-0.1-0.1-0.2-0.1C-4,18.2-4,18.2-4.1,18.1v-0.3
	L-2.4,17.4z M-2.1,14.9c0.1,0,0.2,0,0.3,0c0.1,0,0.2,0.1,0.4,0.1c0.1,0.1,0.2,0.1,0.3,0.2c0.1,0.2,0.2,0.2,0.3,0.3l-1,1l-0.6-1.6
	H-2.1z M3,15.5c0.5,0,1,0.1,1.5,0.2c0.5,0.2,0.9,0.4,1.3,0.7c0.4,0.3,0.7,0.7,1,1.1s0.4,0.9,0.4,1.5h-9c0.1-0.6,0.3-1.2,0.5-1.6
	c0.3-0.4,0.6-0.8,1-1.1c0.4-0.3,1-0.5,1.5-0.6C1.8,15.6,2.4,15.5,3,15.5z M-0.1,10l0.5-0.7V9l-0.5-0.7V8c0-0.1,0-0.2,0-0.3
	S0,7.5,0,7.4c0.1-0.1,0.1-0.2,0.2-0.3C0.4,7,0.5,6.9,0.6,6.8v0.5L0.1,8l0.5,0.8v0.7l-0.5,0.8L0.6,11v0.5C0.4,11.2,0.2,11,0,10.9
	c-0.1-0.2-0.1-0.4-0.1-0.6V10z M2,14.2l-1.2,0.4V13L2,14.2z M1.8,8c0-0.2,0-0.4,0.2-0.6C2.2,7.2,2.3,7,2.5,6.8v0.5L2,8l0.5,0.8v0.7
	L2,10.3L2.5,11v0.3v0.2c-0.2-0.1-0.3-0.3-0.4-0.4C2.1,11,2,11,1.9,10.9c0-0.1-0.1-0.2-0.1-0.3s0-0.2,0-0.3V10l0.5-0.7V9L1.8,8.3V8z
	 M4.2,13c0.2,0.1,0.3,0.2,0.4,0.3c0.1,0.2,0.2,0.3,0.2,0.5s0.1,0.3,0.1,0.4c0,0.1,0,0.2,0,0.3H4.6c-0.1,0-0.2,0-0.3,0
	S4,14.4,3.9,14.4s-0.2-0.1-0.3-0.1s-0.2,0-0.3,0L4.2,13z M3.6,10l0.5-0.7V9L3.6,8.3V8c0-0.1,0-0.2,0-0.3s0.1-0.2,0.2-0.3
	C3.9,7.3,4,7.2,4.1,7.1c0-0.1,0.2-0.2,0.3-0.3v0.5L3.9,8l0.5,0.8v0.7l-0.5,0.8L4.4,11v0.5c-0.3-0.3-0.5-0.5-0.6-0.6
	c-0.1-0.1-0.2-0.4-0.2-0.6V10z M7.4,14.6v0.3c0,0.2,0,0.3,0,0.4c0,0.1,0,0.2,0,0.3s0,0.2-0.1,0.3c0,0.1-0.1,0.2-0.2,0.2l-0.9-1
	L7.4,14.6z M9.3,17.4v0.3c0,0.1,0,0.2-0.1,0.3c-0.1,0.1-0.2,0.2-0.3,0.3s-0.2,0.2-0.3,0.3c-0.1,0.1-0.2,0.1-0.3,0.1l-0.3-1v-0.3
	C8,17.4,9.3,17.4,9.3,17.4z"/>
</svg>
