<svg width="25" height="24" viewBox="0 0 25 24" fill="none" xmlns="http://www.w3.org/2000/svg">
<path d="M12.1684 19.0213C13.3204 19.0213 14.2106 20.0589 14.2106 21.2695C14.2106 22.48 13.2681 23.5176 12.1684 23.5176C11.0688 23.5176 10.1262 22.48 10.1262 21.2695C10.1262 20.0589 11.0164 19.0213 12.1684 19.0213ZM18.5044 21.2695C18.5044 22.5376 19.447 23.5176 20.5466 23.5176C21.6462 23.5176 22.5888 22.48 22.5888 21.2695C22.5888 20.0589 21.6462 19.0213 20.5466 19.0213C19.447 19.0213 18.5044 20.0013 18.5044 21.2695ZM23.6884 16.6579C23.6884 16.0238 23.2171 15.505 22.6411 15.505H10.4404L5.93716 1.26695C5.78007 0.805799 5.36116 0.517578 4.94225 0.517578H1.69571C1.11971 0.517578 0.648438 1.03638 0.648438 1.67046C0.648438 2.30455 1.11971 2.82334 1.69571 2.82334H4.20916L8.76479 17.0614C8.92188 17.5226 9.28843 17.8108 9.7597 17.8108H22.6411C23.2171 17.8108 23.6884 17.292 23.6884 16.6579ZM23.8979 5.70555H17.0382H10.1786C9.70734 5.70555 9.49788 5.93612 9.60261 6.39728L11.8019 13.2569C11.9066 13.6604 12.2731 13.7757 12.6397 13.7757H17.0382H21.4368C21.8033 13.7757 22.1699 13.6604 22.2746 13.2569L24.4739 6.39728C24.5786 5.93612 24.3691 5.70555 23.8979 5.70555Z" fill="#D3222A"/>
</svg>
