<?xml version="1.0" encoding="utf-8"?>
<!-- Generator: Adobe Illustrator 19.0.0, SVG Export Plug-In . SVG Version: 6.00 Build 0)  -->
<svg version="1.1" id="Layer_1" xmlns="http://www.w3.org/2000/svg" xmlns:xlink="http://www.w3.org/1999/xlink" x="0px" y="0px"
	 width="9px" height="11.9px" viewBox="-7 7.1 9 11.9" style="enable-background:new -7 7.1 9 11.9;" xml:space="preserve">
<style type="text/css">
	.st0{fill:#838383;}
</style>
<path id="XMLID_3_" class="st0" d="M2,7v12h-9V7C-7,7,2,7,2,7z M-2.4,18.7c0.4,0,0.8-0.1,1.3-0.3c0.5-0.2,0.9-0.5,1.3-1
	c0.4-0.4,0.7-1,1-1.6c0.3-0.7,0.5-1.5,0.6-2.3c0.1-0.7,0-1.3-0.1-1.9c-0.1-0.6-0.2-1.1-0.4-1.5C1,9.6,0.6,9,0,8.3s-1.4-1.1-2.4-1.1
	c-0.9,0-1.6,0.2-2.1,0.7c-0.6,0.5-1,1-1.2,1.4c-0.3,0.4-0.6,0.9-0.7,1.4s-0.3,1.2-0.4,1.9c0,0.3,0,0.7,0,1.2c0,0.4,0.1,0.9,0.2,1.3
	c0.2,0.4,0.4,0.9,0.6,1.3c0.2,0.4,0.5,0.8,0.8,1.2c0.3,0.3,0.7,0.6,1.2,0.8C-3.5,18.6-3,18.7-2.4,18.7z M-4.7,17.8
	C-4.7,17.7-4.7,17.7-4.7,17.8c0.1-0.1,0.1-0.1,0.2-0.1h0.2c0.3,0,0.6-0.1,0.8-0.1s0.4-0.2,0.6-0.3s0.3-0.3,0.4-0.5
	c0.1-0.3,0.2-0.5,0.3-0.7c0.1-0.4,0.2-0.8,0.1-1.2s-0.1-0.7-0.2-1.1c-0.1-0.4-0.2-0.7-0.3-1c-0.1-0.2-0.2-0.5-0.2-0.6
	C-2.9,11.8-3,11.4-3,11.1s0-0.5,0-0.7s0-0.3,0-0.4c0-0.1,0-0.2,0.1-0.3c0-0.1,0-0.1,0.1-0.1v0.1c0,0.3,0.1,0.7,0.1,0.9
	c0.1,0.3,0.1,0.6,0.2,0.8c0,0.1,0.1,0.3,0.2,0.5s0.2,0.5,0.3,0.8c0.1,0.3,0.2,0.6,0.3,0.9c0.1,0.3,0.2,0.6,0.3,1
	c0.1,0.3,0.1,0.6,0.2,0.9c0,0.3,0,0.6,0,0.8c-0.1,0.4-0.2,0.7-0.4,0.9c-0.2,0.2-0.4,0.4-0.6,0.5s-0.4,0.2-0.6,0.2
	C-3,17.9-3.2,18-3.3,18s-0.2,0-0.3,0s-0.2,0-0.3,0s-0.2,0-0.3,0c-0.1,0-0.1,0-0.2,0h-0.2C-4.5,17.9-4.5,17.8-4.7,17.8
	C-4.6,17.8-4.7,17.8-4.7,17.8z M-3,8.1c0,0.2,0,0.3,0.1,0.4c0.1,0.1,0.2,0.1,0.4,0.1s0.3,0,0.4-0.1C-2,8.4-1.9,8.3-1.9,8.1
	S-2,7.8-2.1,7.7s-0.2-0.1-0.4-0.1s-0.3,0-0.4,0.1S-3,8-3,8.1z"/>
</svg>
