<?xml version="1.0" encoding="utf-8"?>
<!-- Generator: Adobe Illustrator 15.1.0, SVG Export Plug-In . SVG Version: 6.00 Build 0)  -->
<!DOCTYPE svg PUBLIC "-//W3C//DTD SVG 1.1//EN" "http://www.w3.org/Graphics/SVG/1.1/DTD/svg11.dtd">
<svg version="1.1" id="Layer_1" xmlns="http://www.w3.org/2000/svg" xmlns:xlink="http://www.w3.org/1999/xlink" x="0px" y="0px"
	 width="292.886px" height="493.139px" viewBox="0 0 292.886 493.139" enable-background="new 0 0 292.886 493.139"
	 xml:space="preserve">
<style type="text/css">
    .st0{fill:#838383;}
</style>
<g>
	<g>
		<path class="st0" fill-rule="evenodd" clip-rule="evenodd" d="M145.923,0c6.428,27.775,12.771,53.512,20.853,77.585
			c8.213,24.462,18.582,46.107,31.279,66.853c6.213,10.15,12.756,19.904,19.627,29.439c6.853,9.511,13.642,19.041,21.466,27.6
			c3.962,4.333,7.893,8.425,11.347,13.187c16.87,23.253,32.433,49.986,39.253,83.412c2.795,13.697,4.011,29.997,2.453,45.387
			c-3.039,30.029-11.794,53.447-24.227,73.905c-12.15,19.994-27.209,37.842-46.612,51.519c-19.437,13.7-42.36,23.602-73.905,24.227
			c-31.245,0.619-56.004-9.785-75.439-23c-19.834-13.485-35.353-30.643-47.533-50.599c-12.49-20.465-21.494-44.095-23.919-74.212
			c-2.61-32.406,4.109-60.46,14.106-82.799c10.126-22.627,22.652-42.922,38.333-59.799c7.849-8.448,14.863-17.834,21.773-27.293
			c13.899-19.027,26.284-38.729,36.8-61.333c12.798-27.51,22.212-59.767,29.746-92.918c1.531-6.736,3.32-13.541,4.294-20.24
			C145.678,0.498,145.499,0.042,145.923,0z M51.778,252.996c-6.015,17.358-8.668,37.253-10.12,57.959
			c-1.037,14.792-1.3,29.544,0.307,43.546c1.611,14.042,5.095,26.033,8.893,36.493c7.167,19.736,20.492,40.964,39.253,51.212
			c10.012,5.47,24.001,8.802,35.573,4.601c10.374-3.767,18.301-12.847,19.32-26.066c0.591-7.677-0.511-13.889-1.84-19.626
			c-3.863-16.668-13.032-33.688-20.24-44.773c-9.775-15.032-21.177-29.581-33.119-42.626c-1.896-2.07-4.261-3.753-5.213-5.826
			c-1.144-2.489-1.573-6.003-2.454-9.2c-5.194-18.863-10.588-36.242-15.64-54.585c-1.106-4.017-2.014-7.774-6.133-6.133
			C55.733,240.638,53.446,248.181,51.778,252.996z"/>
	</g>
</g>
</svg>
