<?xml version="1.0" encoding="utf-8"?>
<!-- Generator: Adobe Illustrator 19.0.0, SVG Export Plug-In . SVG Version: 6.00 Build 0)  -->
<svg version="1.1" id="Layer_1" xmlns="http://www.w3.org/2000/svg" xmlns:xlink="http://www.w3.org/1999/xlink" x="0px" y="0px"
	 width="11.4px" height="10.6px" viewBox="-5 7.4 11.4 10.6" style="enable-background:new -5 7.4 11.4 10.6;" xml:space="preserve"
	>
<style type="text/css">
	.st0{fill:#838383;}
</style>
<path id="XMLID_14_" class="st0" d="M6.4,18H0.1v-1.5h-3.7v-3H-5V7.4h6.3V9h3.2v2.9h1.9V18z M0.8,7.9h-5.3v5h4.6
	c0.1-0.1,0.2-0.3,0.3-0.4c0.1-0.1,0.2-0.3,0.3-0.4L0.8,7.9L0.8,7.9z M-1.5,12.7v-1.9h-1.3v1.9H-4V8.1h1.2v1.8h1.4V8.1h1.2v4.6
	C-0.2,12.7-1.5,12.7-1.5,12.7z M5.9,12.5H1.2c-0.1,0.1-0.2,0.2-0.3,0.3c-0.1,0.2-0.2,0.3-0.3,0.4v4.3h5.3V12.5z M2.3,17.3v-4.6h1.2
	v3.7h1.6v0.9H2.3z"/>
</svg>
