<?xml version="1.0" encoding="utf-8"?>
<!-- Generator: Adobe Illustrator 19.0.0, SVG Export Plug-In . SVG Version: 6.00 Build 0)  -->
<svg version="1.1" id="Layer_1" xmlns="http://www.w3.org/2000/svg" xmlns:xlink="http://www.w3.org/1999/xlink" x="0px" y="0px"
	 width="31.1px" height="12px" viewBox="4 7 31.1 12" style="enable-background:new 4 7 31.1 12;" xml:space="preserve">
<style type="text/css">
	.st0{fill:#838383;}
</style>
<path id="XMLID_318_" class="st0" d="M4.4,17.4v-3.1l-0.1-0.2V12H4.2c0,0,0,0,0-0.1v-0.1c0,0,0,0,0-0.1c0-0.1,0-0.1,0-0.1v-0.1
	c0,0,0,0,0.1,0v-1c0-0.1,0.1-0.2,0.1-0.2c0-0.1,0.1-0.1,0.1-0.2S4.6,10,4.6,10c0-0.1,0.1-0.1,0.2-0.2C4.9,9.7,4.9,9.7,5,9.7
	s0.2-0.1,0.2-0.1c0.1,0,0.1-0.1,0.2-0.1h1.7V8.3C7.1,8.2,7,8.1,7,8C6.9,7.9,6.9,7.8,6.8,7.7C6.7,7.6,6.7,7.5,6.6,7.4
	c-0.1,0-0.1-0.1-0.1-0.2c0,0,0,0,0-0.1c0,0,0-0.1,0.1-0.1C6.8,7,7,7,7.1,7.2c0.1,0.1,0.2,0.3,0.2,0.5C7.4,7.8,7.4,8,7.5,8.2
	c0,0.2,0.1,0.3,0.2,0.4v0.8c0,0,0,0,0,0.1v0.1l0,0l0,0c0,0,0,0,0.1,0.1h0.1c0,0,0.1,0.1,0.2,0.1c0,0,0.1,0.1,0.2,0.2
	c0.2,0,0.3,0.1,0.4,0.1c0.1,0.1,0.2,0.1,0.2,0.1c0.1,0.1,0.2,0.2,0.3,0.4c0.1,0.2,0.1,0.2,0.2,0.4c0.1,0.2,0.1,0.3,0.1,0.5
	s0,0.3,0,0.4c0,0.3,0,0.5-0.1,0.8c-0.1,0.2-0.1,0.4-0.3,0.7c-0.1,0.2-0.2,0.4-0.3,0.7c-0.1,0.3-0.3,0.4-0.4,0.6
	c0,0.1-0.1,0.2-0.1,0.3s-0.1,0.2-0.1,0.3c-0.1,0.1-0.2,0.2-0.3,0.3c-0.2,0.1-0.2,0.3-0.3,0.4l-0.9,1v0.1c0,0,0,0.1-0.1,0.1l-0.1,0.1
	H6.4c0,0,0,0-0.1,0.1l-0.1,0.1l-0.1,0.1L6,17.7c-0.3,0.2-0.5,0.5-0.8,0.6c-0.3,0.2-0.6,0.4-0.9,0.6c0,0-0.1,0-0.2,0.1
	C4,19,4,19,4,19.1v-0.3L4.4,17.4z M10.8,14.3l-0.1-0.2V12c0,0-0.1,0-0.1-0.1v-0.1c0,0,0-0.1,0-0.2s0.1-0.1,0.1-0.1v-1
	c0,0,0,0,0.1-0.1c0.1-0.1,0.1-0.2,0.2-0.3c0.1-0.1,0.2-0.2,0.2-0.3c0-0.1,0.2-0.2,0.2-0.2h0.1h0.1c0,0,0,0,0.1,0c0,0,0-0.1,0.1-0.1
	h1.8V8.3c0-0.1,0-0.2-0.1-0.3c-0.1-0.2-0.2-0.3-0.3-0.4c0,0-0.1-0.1-0.1-0.2C13,7.3,13,7.1,13,7c0.2,0,0.4,0.1,0.5,0.2
	c0.1,0.1,0.2,0.3,0.3,0.4c0,0.2,0,0.4,0.1,0.6c0,0.2,0.1,0.4,0.2,0.5v0.7c0,0,0,0,0,0.1v0.1c0,0,0.1,0.1,0.2,0.2
	c0.1,0.1,0.3,0.2,0.5,0.2c0.2,0.1,0.4,0.2,0.5,0.3c0.1,0.1,0.3,0.2,0.4,0.3c0.1,0.2,0.2,0.4,0.3,0.7c0.1,0.3,0.1,0.5,0.1,0.7
	c0,0.3,0,0.5-0.1,0.8c-0.1,0.3-0.1,0.5-0.3,0.7c-0.1,0.2-0.2,0.5-0.4,0.7c-0.1,0.2-0.3,0.4-0.4,0.7c0,0.1-0.1,0.2-0.1,0.3
	c0,0.1-0.1,0.2-0.1,0.3c0,0,0,0-0.1,0.1c0,0.1-0.1,0.1-0.2,0.2c-0.1,0.1-0.1,0.1-0.1,0.2s-0.1,0.1-0.1,0.1s0,0,0,0.1
	c0,0.1,0,0.1,0,0.1l-0.9,1c0,0.1-0.1,0.2-0.2,0.3c-0.1,0.1-0.3,0.2-0.4,0.4s-0.5-0.2-0.7-0.1s-0.3,0.2-0.3,0.2
	c-0.2,0.1-0.4,0.3-0.6,0.4c-0.2,0.2-0.4,0.3-0.7,0.3v-0.2c0-0.1,0-0.2,0-0.3s0.1-0.2,0.1-0.4s0.1-0.3,0.1-0.4c0-0.1,0.1-0.2,0.1-0.3
	v-2.9H10.8z M17.2,17.4v-3.2l-0.1-0.1V12H17l-0.1-0.1c0,0,0-0.1,0-0.2v-0.1c0,0,0-0.1,0.1-0.1v-1l0.1-0.1c0.1-0.1,0.1-0.2,0.2-0.3
	c0.1-0.1,0.2-0.2,0.2-0.3c0.1-0.1,0.2-0.2,0.3-0.2l0,0l0,0c0,0,0,0,0.1-0.1c0,0,0-0.1,0.1-0.1h1.8V8.3c0-0.1,0-0.3-0.1-0.4
	c-0.1-0.1-0.1-0.2-0.2-0.3c-0.1-0.1-0.1-0.2-0.2-0.3c-0.1-0.1-0.1-0.2-0.1-0.3c0.3,0,0.5,0.1,0.6,0.2C19.9,7.3,20,7.4,20,7.6
	c0,0.2,0.1,0.3,0.1,0.5c0,0.2,0.1,0.3,0.2,0.5v0.8c0,0,0,0,0,0.1v0.1l0,0l0,0c0,0,0,0,0.1,0.1h0.1c0,0,0.1,0.1,0.2,0.1
	c0.3,0,0.4,0.1,0.5,0.2s0.2,0.1,0.3,0.2c0.1,0.1,0.2,0.1,0.2,0.1c0.2,0,0.3,0.1,0.3,0.2s0.1,0.3,0.2,0.5c0,0.2,0.1,0.3,0.1,0.5
	s0,0.3,0,0.4c0,0.3,0,0.5-0.1,0.8c-0.1,0.2-0.2,0.5-0.3,0.7c-0.1,0.2-0.2,0.5-0.4,0.7c-0.1,0.2-0.3,0.4-0.4,0.7
	c0,0.1-0.1,0.2-0.1,0.3c0,0.1-0.1,0.2-0.1,0.3c0,0,0,0-0.1,0.1c0,0.1-0.1,0.1-0.2,0.2s-0.1,0.1-0.2,0.2S20.3,16,20.3,16s0,0,0,0.1
	v0.1l-0.9,1c0,0.1-0.1,0.2-0.2,0.3c-0.1,0.1-0.3,0.2-0.4,0.4c-0.1,0.2-0.3,0.2-0.5,0.3c-0.2,0.1-0.3,0.2-0.3,0.2
	c-0.2,0.1-0.4,0.3-0.6,0.4c-0.2,0.1-0.4,0.3-0.7,0.3v-0.3L17.2,17.4z M23.6,17.4v-3.1l-0.1-0.1v-2.1c-0.1,0-0.1-0.1-0.1-0.1
	s0-0.1,0-0.2c0,0,0,0,0-0.1v-0.1v-0.1c0,0,0,0,0.1,0v-1c0.1,0,0.2-0.1,0.2-0.3c0.1-0.2,0.2-0.3,0.3-0.3c0.1-0.1,0.2-0.1,0.3-0.2
	c0.1-0.1,0.2-0.1,0.3-0.2h1.8V8.3c0-0.1,0-0.2-0.1-0.3c-0.1-0.1-0.1-0.2-0.2-0.3C26,7.6,26,7.5,25.9,7.4c-0.1-0.1-0.1-0.2-0.1-0.2
	c0-0.1,0-0.1,0-0.1s0-0.1,0.1-0.1c0.2,0,0.3,0.1,0.4,0.2c0.1,0.2,0.2,0.4,0.3,0.6c0.1,0.2,0.1,0.4,0.2,0.7c0,0.2,0.1,0.4,0.1,0.5
	c0,0,0,0.1,0,0.2c0,0.1,0,0.2,0,0.2s0,0,0,0.1v0.1c0,0,0.1,0.1,0.2,0.2c0.1,0.1,0.3,0.2,0.5,0.2c0.1,0,0.3,0.1,0.4,0.2
	c0.1,0.1,0.3,0.2,0.3,0.3c0.1,0.2,0.2,0.4,0.2,0.7s0.1,0.5,0.1,0.7s0,0.5-0.1,0.7s-0.2,0.5-0.3,0.7c-0.1,0.2-0.2,0.5-0.3,0.7
	s-0.3,0.4-0.4,0.6c0,0.1-0.1,0.2-0.1,0.3c0,0.1-0.1,0.2-0.1,0.3c0,0,0,0-0.1,0.1c0,0.1-0.1,0.1-0.2,0.2c0.1,0.1,0,0.2,0,0.2
	l-0.1,0.1c0,0,0,0,0,0.1V16L26,17c0,0.1-0.1,0.1-0.2,0.2c-0.1,0.1-0.2,0.2-0.3,0.3c-0.1,0.1-0.3,0.2-0.4,0.3S24.9,18,24.8,18
	c-0.1,0-0.2,0-0.3,0.1c-0.1,0.1-0.3,0.2-0.4,0.3s-0.3,0.2-0.5,0.3c-0.2,0.1-0.3,0.1-0.4,0.1v-0.3L23.6,17.4z M30,14.3l-0.1-0.1V12
	h-0.1c0,0,0,0,0-0.1v-0.1c0,0,0,0,0-0.1c0-0.1,0-0.1,0-0.1v-0.1c0,0,0,0,0.1,0v-1c0,0,0.1,0,0.1-0.1l0.1-0.1c0-0.1,0-0.1,0.1-0.2
	c0-0.1,0-0.1,0.1-0.1c0.1-0.1,0.2-0.2,0.4-0.3c0.1-0.1,0.3-0.2,0.4-0.2h1.2h0.1c0.1,0,0.1,0,0.2,0s0.1,0,0.2,0V8.3
	c0-0.1,0-0.2-0.1-0.3c-0.1-0.1-0.1-0.2-0.2-0.3c-0.1-0.1-0.1-0.2-0.2-0.3c-0.1-0.1-0.1-0.2-0.1-0.3c0,0,0,0,0-0.1s0-0.1,0.1-0.1
	c0.2,0,0.4,0.1,0.5,0.2C32.9,7.2,33,7.4,33,7.5c0,0.3,0,0.5,0.1,0.7c0,0.2,0.1,0.3,0.2,0.5v0.7c0,0,0,0,0,0.1v0.1c0,0,0,0,0.1,0.1
	c0,0,0,0,0.1,0c0.3,0.1,0.6,0.3,0.8,0.4c0.2,0.1,0.4,0.3,0.6,0.4c-0.1,0.1,0,0.3,0.1,0.5s0.1,0.5,0.1,0.9c0,0.3,0,0.5-0.1,0.8
	c-0.1,0.3-0.2,0.5-0.3,0.7c-0.1,0.2-0.2,0.5-0.4,0.7c-0.2,0.2-0.2,0.5-0.3,0.8c0,0,0,0.1-0.1,0.2c0,0.1,0,0.1-0.1,0.2
	c0,0.1-0.1,0.2-0.2,0.2c-0.1,0.1-0.1,0.1-0.2,0.2c-0.1,0.1-0.1,0.1-0.2,0.2c-0.1,0.1-0.1,0.2-0.1,0.2l-0.9,1c0,0.1-0.1,0.1-0.2,0.3
	c-0.1,0.1-0.3,0.2-0.5,0.4c-0.2,0.1-0.4,0.3-0.6,0.5s-0.4,0.3-0.6,0.4s-0.4,0.2-0.5,0.3c-0.1,0.1-0.3,0.1-0.3,0.1
	c0-0.2,0-0.5,0.1-0.8s0.2-0.5,0.2-0.8v-3.2H30z"/>
</svg>
