<?xml version="1.0" encoding="utf-8"?>
<!-- Generator: Adobe Illustrator 19.0.0, SVG Export Plug-In . SVG Version: 6.00 Build 0)  -->
<svg version="1.1" id="Layer_1" xmlns="http://www.w3.org/2000/svg" xmlns:xlink="http://www.w3.org/1999/xlink" x="0px" y="0px"
	 width="15.4px" height="10.6px" viewBox="-3 7.4 15.4 10.6" style="enable-background:new -3 7.4 15.4 10.6;" xml:space="preserve"
	>
<style type="text/css">
	.st0{fill:#838383;}
</style>
<path id="XMLID_143_" class="st0" d="M-2.9,16.9c0.1-0.4,0.2-0.7,0.3-1.1c0.1-0.4,0.3-0.7,0.4-1c0.3-0.6,0.7-1.1,1.1-1.5
	s0.9-0.8,1.4-1.1c0.5-0.3,1-0.6,1.6-0.8C2.5,11.2,3,11.1,3.6,11V9.7H2.8V8.8l0.6-0.6h3.8v0.6L5.7,9.7V11c0.7,0.1,1.4,0.2,2,0.5
	c0.7,0.2,1.3,0.6,1.8,1c0.6,0.4,1,0.9,1.5,1.4c0.4,0.6,0.8,1.2,1,1.9c0.1,0.2,0.1,0.4,0.2,0.5s0.1,0.4,0.1,0.5l0.1,1.1H-3L-2.9,16.9
	z M-0.7,15.8c0,0.1,0,0.1-0.1,0.2c0,0.1,0,0.1-0.1,0.2h11.1c0-0.1,0-0.1-0.1-0.2c0-0.1,0-0.1-0.1-0.2H-0.7z M10,15.5
	c-0.3-0.6-0.7-1.2-1.3-1.6c-0.6-0.4-1.2-0.8-1.9-1c-0.7-0.2-1.4-0.3-2.1-0.3s-1.5,0.1-2.2,0.3s-1.3,0.5-1.9,1s-1,1-1.3,1.6H10z
	 M8.1,8.1v0.5H7.5V8.1H8.1z M8.5,8.9v0.5H8V8.9H8.5z M9,7.9v0.5H8.4V7.9H9z M9.5,8.7v0.6H8.9V8.7H9.5z M9.8,9.5v0.6H9.3V9.5H9.8z
	 M9.9,7.4v0.5H9.3V7.4H9.9z M10.3,8.3v0.5H9.7V8.3H10.3z M10.7,9.3v0.5h-0.6V9.3H10.7z M11,7.4v0.5h-0.6V7.4H11z M11.3,8.4v0.5h-0.6
	V8.4H11.3z M12.1,7.5V8h-0.6V7.5H12.1z"/>
</svg>
