<?xml version="1.0" encoding="utf-8"?>
<!-- Generator: Adobe Illustrator 19.0.0, SVG Export Plug-In . SVG Version: 6.00 Build 0)  -->
<svg version="1.1" id="Layer_1" xmlns="http://www.w3.org/2000/svg" xmlns:xlink="http://www.w3.org/1999/xlink" x="0px" y="0px"
	 width="18.4px" height="12px" viewBox="-2 7 18.4 12" style="enable-background:new -2 7 18.4 12;" xml:space="preserve">
<style type="text/css">
	.st0{fill:#838383;}
</style>
<path id="XMLID_309_" class="st0" d="M-1.7,14.1V12c0,0-0.1,0-0.1-0.1v-0.1c0,0,0-0.1,0-0.2c0,0,0,0,0.1-0.1h0.1v-1
	c0-0.1,0-0.2,0.2-0.3c0-0.1,0.1-0.2,0.2-0.3C-1.1,9.8-1,9.7-0.8,9.6c0.1-0.1,0.2-0.1,0.2-0.2h1.7V8.3c0-0.1,0-0.2-0.1-0.3
	c0-0.2-0.1-0.3-0.2-0.4c0,0-0.1-0.1-0.1-0.2C0.6,7.3,0.6,7.1,0.6,7C0.8,7,1,7.1,1.1,7.2c0.1,0.1,0.3,0.3,0.3,0.5
	c0.1,0.2,0.1,0.4,0.2,0.6c0,0.2,0.1,0.4,0.1,0.6c0,0,0,0.1,0,0.2c0,0.1,0,0.1,0,0.1s0,0,0,0.1v0.1c0,0,0.1,0.1,0.2,0.2
	C2,9.7,2.1,9.8,2.3,9.9c0.2,0.1,0.3,0.2,0.5,0.3c0.2,0.1,0.3,0.2,0.4,0.3c0.1,0.2,0.2,0.4,0.3,0.7c0.1,0.3,0.1,0.5,0.1,0.8
	c0,0.2,0,0.5-0.1,0.7s-0.2,0.5-0.3,0.7c-0.1,0.2-0.2,0.5-0.4,0.7c-0.2,0.2-0.2,0.4-0.3,0.6c-0.1,0.1-0.1,0.2-0.2,0.3
	c0,0.1-0.1,0.2-0.1,0.3c0,0,0,0-0.1,0.1c0,0-0.1,0.1-0.1,0.2c-0.1,0-0.1,0.1-0.2,0.1s-0.1,0.1-0.1,0.1s0,0,0,0.1V16l-0.9,1
	c0,0.1-0.1,0.1-0.2,0.3s-0.3,0.3-0.5,0.4c-0.2,0.1-0.4,0.3-0.6,0.4c-0.2,0.2-0.4,0.3-0.6,0.4c-0.2,0.1-0.4,0.2-0.5,0.3
	c-0.1,0.1-0.2,0.1-0.3,0.1H-2c0-0.1,0.1-0.2,0.1-0.3s0.1-0.3,0.1-0.4s0.1-0.3,0.1-0.4s0.1-0.3,0.1-0.4v-3.2L-1.7,14.1z M4.9,17.4
	v-3.2l-0.1-0.1v-2C4.7,12,4.7,12,4.7,11.9c0-0.1,0-0.2,0-0.2s0,0,0.1-0.1h0.1v-1c0-0.2,0.1-0.3,0.1-0.4c0-0.1,0.1-0.2,0.2-0.3
	c0.2-0.2,0.3-0.3,0.5-0.3c0.2-0.1,0.4-0.1,0.6-0.1c0.2,0,0.4,0,0.6,0c0.2,0,0.4,0,0.6,0V8.3c0-0.1,0-0.2-0.1-0.3
	c0-0.2,0-0.3-0.1-0.4S7.1,7.4,7.1,7.3C7,7.2,7,7.1,7,7c0.2,0,0.4,0,0.5,0.1s0.2,0.2,0.3,0.3s0.1,0.3,0.1,0.5S8,8.3,8,8.4
	c0,0,0,0.1,0.1,0.1c0,0.1,0.1,0.1,0.1,0.1V9v0.3c0,0,0,0,0,0.1v0.1c0,0,0.1,0.1,0.2,0.2c0.1,0.1,0.3,0.1,0.5,0.2s0.4,0.2,0.5,0.3
	s0.3,0.2,0.4,0.3c0.2,0.2,0.3,0.4,0.3,0.7S10,11.6,10,11.8c0,0.3,0,0.5-0.1,0.8c-0.1,0.2-0.1,0.5-0.3,0.7c-0.1,0.2-0.2,0.5-0.4,0.7
	S9,14.5,8.9,14.7c0,0.1-0.1,0.2-0.1,0.3s-0.1,0.2-0.1,0.3c0,0,0,0-0.1,0.1c0,0.1-0.1,0.1-0.2,0.2c-0.1,0.1-0.1,0.1-0.2,0.2
	s-0.1,0.1-0.1,0.1s0,0,0,0.1v0.1l-0.9,1c0,0.1-0.1,0.2-0.2,0.3c-0.1,0.1-0.3,0.2-0.4,0.4s-0.4,0-0.5,0.2s-0.3,0.2-0.3,0.2
	c-0.2,0.1-0.4,0.3-0.6,0.4C5,18.7,4.7,18.9,4.5,19v-0.3L4.9,17.4z M11.3,17.4v-3.2l-0.1-0.1v-2c0,0,0,0-0.1-0.1S11,11.9,11,11.9
	s0-0.1,0-0.2v-0.1c0,0,0-0.1,0.1-0.1v-1c0-0.1,0-0.2,0.1-0.3c0.1-0.1,0.2-0.2,0.3-0.4c0.1-0.1,0.2-0.2,0.4-0.3
	c0.2-0.1,0.2-0.1,0.3-0.1H14V8.3c0-0.1,0-0.2-0.1-0.3c-0.1-0.1-0.1-0.2-0.2-0.2c-0.1-0.1-0.1-0.1-0.2-0.2c-0.1-0.1-0.1-0.2-0.1-0.3
	V7.2c0,0,0-0.1,0.1-0.1c0.2,0,0.4,0.1,0.5,0.2c0.1,0.1,0.2,0.3,0.2,0.5c0,0.2,0.1,0.4,0.1,0.5c0,0.2,0.1,0.3,0.2,0.3v1l0.1,0.1
	c0.3,0.2,0.6,0.3,0.8,0.4c0.2,0.1,0.4,0.3,0.6,0.4c0.1,0.2,0.3,0.4,0.3,0.6c0.1,0.2,0.1,0.5,0.1,0.9c0,0.2,0,0.5-0.1,0.7
	s-0.1,0.5-0.2,0.7c-0.1,0.2-0.3,0.4-0.4,0.6c-0.1,0.2-0.2,0.4-0.4,0.6c-0.1,0.1-0.1,0.2-0.1,0.3s-0.1,0.2-0.2,0.3c0,0,0,0-0.1,0.1
	c0,0.1-0.1,0.1-0.2,0.2c-0.1,0.1-0.1,0.1-0.2,0.2c0,0.1-0.1,0.1-0.1,0.1s0,0,0,0.1V16l-0.9,1c0,0.1-0.1,0.2-0.2,0.3
	c-0.1,0.1-0.3,0.2-0.4,0.4c-0.2,0.1-0.3,0.2-0.5,0.3c-0.2,0.1-0.3,0.2-0.3,0.2c-0.2,0.1-0.4,0.3-0.6,0.4c-0.2,0.2-0.4,0.3-0.7,0.3
	v-0.3L11.3,17.4z"/>
</svg>
